<?xml version="1.0" standalone="no"?>
<!DOCTYPE svg PUBLIC "-//W3C//DTD SVG 20010904//EN"
 "http://www.w3.org/TR/2001/REC-SVG-20010904/DTD/svg10.dtd">
<svg version="1.0" xmlns="http://www.w3.org/2000/svg"
 width="600.000000pt" height="685.000000pt" viewBox="0 0 600.000000 685.000000"
 preserveAspectRatio="xMidYMid meet">
<g transform="translate(0.000000,685.000000) scale(0.100000,-0.100000)"
fill="#000000" stroke="none">
<path d="M2526 6755 c11 -289 26 -601 30 -606 1 -3 17 -4 34 -1 26 4 31 8 27
26 -3 11 -22 156 -42 321 -41 339 -55 408 -49 260z m52 -473 c3 -36 9 -77 12
-77 1 0 3 -8 5 -17 2 -10 -3 -18 -11 -18 -8 0 -14 8 -15 18 0 9 -2 43 -3 75
-3 63 7 80 12 19z"/>
<path d="M3445 6718 c-290 -637 -284 -623 -267 -635 38 -30 45 -18 125 210 43
122 100 279 126 350 50 133 57 164 16 75z m-181 -480 c-10 -18 -17 -37 -16
-41 1 -5 -2 -6 -8 -2 -15 9 -12 19 10 45 11 13 20 28 20 33 0 6 3 8 6 5 3 -4
-3 -21 -12 -40z m-40 -82 c-3 -14 -10 -26 -14 -26 -5 0 -3 13 3 30 13 35 21
33 11 -4z m-7 -42 c-3 -3 -12 -4 -19 -1 -8 3 -5 6 6 6 11 1 17 -2 13 -5z m0
-20 c-3 -3 -12 -4 -19 -1 -8 3 -5 6 6 6 11 1 17 -2 13 -5z"/>
<path d="M1893 6698 c3 -7 19 -44 36 -83 16 -38 76 -186 131 -327 56 -142 107
-258 114 -258 7 0 20 6 30 13 17 12 7 35 -138 329 -86 173 -156 320 -156 327
0 6 -5 11 -11 11 -6 0 -9 -6 -6 -12z m231 -484 c3 -8 2 -12 -4 -9 -6 3 -10 10
-10 16 0 14 7 11 14 -7z m35 -66 c28 -63 33 -86 22 -93 -6 -3 -8 0 -5 8 3 8
-2 22 -11 31 -9 9 -14 23 -11 31 3 8 2 15 -2 15 -4 0 -12 11 -19 25 -6 14 -7
25 -2 25 5 0 17 -19 28 -42z"/>
<path d="M2817 6605 c-42 -309 -56 -440 -48 -448 5 -5 17 -7 27 -5 18 3 20 20
27 213 4 116 6 230 4 255 l-2 45 -8 -60z"/>
<path d="M3096 6618 c-4 -21 -34 -132 -66 -247 -33 -115 -60 -216 -60 -225 0
-10 9 -16 25 -16 29 0 25 -14 65 220 17 96 35 198 41 226 7 28 9 58 7 65 -3 8
-8 -3 -12 -23z m-89 -445 c-3 -10 -5 -2 -5 17 0 19 2 27 5 18 2 -10 2 -26 0
-35z"/>
<path d="M2260 6588 c0 -3 16 -86 35 -184 19 -98 40 -207 47 -242 10 -56 14
-62 32 -56 12 3 24 9 28 13 4 3 -25 109 -63 236 -61 200 -79 254 -79 233z
m120 -442 c0 -26 -6 -18 -14 19 -5 22 -4 26 4 15 5 -8 10 -24 10 -34z"/>
<path d="M4003 6441 c-121 -126 -479 -526 -481 -535 -1 -7 6 -20 17 -30 19
-17 22 -13 144 141 274 346 386 495 320 424z m-300 -363 c-4 -7 -8 -17 -8 -23
-1 -5 -6 -9 -13 -7 -7 1 -12 -3 -12 -10 0 -6 -3 -8 -7 -5 -3 4 4 18 17 32 25
27 36 33 23 13z m-39 -70 c-3 -4 -12 -4 -22 -1 -13 5 -14 3 -5 -7 8 -9 2 -21
-28 -51 -21 -21 -36 -39 -33 -39 3 0 2 -5 -1 -10 -5 -8 -11 -7 -21 1 -15 12
-9 33 7 24 5 -4 9 -1 9 5 0 6 5 8 10 5 6 -3 10 1 10 9 0 9 9 21 20 28 11 7 20
16 20 21 0 4 -6 5 -12 1 -10 -6 -9 -3 0 8 13 16 55 22 46 6z"/>
<path d="M3485 6214 c-130 -194 -138 -207 -120 -220 10 -8 21 -14 24 -14 8 0
242 432 238 437 -2 2 -66 -90 -142 -203z m-68 -152 c-10 -10 -15 -21 -12 -24
3 -3 -1 -11 -10 -18 -8 -7 -15 -9 -15 -4 0 12 44 73 49 68 2 -2 -3 -12 -12
-22z"/>
<path d="M1770 6366 c0 -2 7 -7 16 -10 8 -3 12 -2 9 4 -6 10 -25 14 -25 6z"/>
<path d="M3856 6352 c-3 -5 1 -9 9 -9 8 0 12 4 9 9 -3 4 -7 8 -9 8 -2 0 -6 -4
-9 -8z"/>
<path d="M1386 6320 c205 -242 257 -300 266 -294 7 4 8 2 4 -5 -5 -7 28 -53
85 -119 51 -59 94 -109 96 -111 2 -3 15 6 28 20 l24 24 -262 255 c-144 140
-253 243 -241 230z m344 -361 c0 -5 5 -7 12 -3 6 4 8 3 4 -4 -3 -5 -1 -12 6
-14 7 -3 8 -7 3 -10 -6 -3 -18 5 -28 18 -10 13 -13 24 -7 24 5 0 10 -5 10 -11z
m56 -46 c-2 -2 15 -22 38 -43 34 -32 39 -41 28 -52 -11 -11 -12 -9 -6 7 7 18
6 19 -10 6 -9 -8 -16 -10 -15 -5 4 25 -2 45 -13 38 -7 -5 -8 -3 -3 6 6 10 4
12 -11 6 -10 -4 -15 -4 -11 0 4 4 0 15 -8 24 -13 15 -13 17 0 17 8 0 13 -2 11
-4z"/>
<path d="M1760 6331 c0 -6 17 -39 38 -73 21 -35 73 -125 116 -200 l78 -137 24
16 c13 8 24 17 24 19 0 2 -26 38 -58 81 -33 43 -96 129 -140 191 -45 63 -82
109 -82 103z m229 -332 c13 -18 19 -29 12 -25 -6 4 -11 3 -11 -3 0 -5 6 -12
13 -14 9 -4 9 -6 -1 -6 -7 -1 -15 7 -18 17 -3 9 -10 25 -15 34 -20 39 -9 37
20 -3z"/>
<path d="M1576 6202 c-3 -5 1 -9 9 -9 8 0 12 4 9 9 -3 4 -7 8 -9 8 -2 0 -6 -4
-9 -8z"/>
<path d="M2508 6070 c-402 -85 -725 -348 -874 -714 -67 -164 -86 -261 -88
-441 -1 -158 16 -305 35 -305 12 0 11 11 -2 90 -15 85 -18 280 -7 350 15 91
58 263 70 277 6 7 14 11 18 8 5 -3 12 -1 15 5 4 6 1 9 -6 8 -6 -2 -14 3 -17
11 -3 8 0 11 7 7 10 -7 15 8 14 42 -1 7 1 11 5 8 6 -7 32 41 32 59 0 7 7 15
15 19 8 3 15 12 15 19 0 20 56 88 65 79 5 -4 5 -1 1 5 -4 7 0 23 8 35 9 12 16
19 16 14 0 -5 7 -3 15 4 8 7 12 16 9 21 -7 12 9 11 24 -1 9 -7 9 -7 2 2 -17
21 -11 29 13 17 20 -11 21 -11 8 5 -13 15 -12 20 9 39 l24 22 -19 -25 c-14
-19 -12 -18 12 5 17 17 29 33 26 38 -7 12 12 8 28 -5 12 -11 12 -11 2 2 -17
18 -16 30 0 30 8 0 24 11 37 25 27 28 50 34 29 8 -7 -10 -9 -15 -5 -11 5 4 16
2 25 -5 14 -10 14 -10 3 5 -8 10 -9 18 -3 22 6 4 7 14 4 24 -3 9 -3 14 2 10 4
-4 24 4 45 17 21 13 41 21 46 17 4 -4 4 -2 0 5 -4 8 6 14 31 19 21 4 32 9 24
12 -13 4 47 31 79 35 8 1 18 6 21 11 4 4 17 3 30 -4 23 -11 23 -10 5 4 -11 9
-16 17 -10 17 5 1 21 3 36 4 15 2 36 9 47 15 26 13 195 39 224 34 21 -4 21 -4
2 6 -17 9 -15 9 10 5 79 -14 148 -18 142 -8 -5 8 6 8 33 2 22 -5 53 -7 68 -3
21 4 24 3 12 -5 -12 -8 -6 -11 27 -11 23 0 54 -5 70 -11 15 -6 41 -13 56 -15
37 -5 49 -13 41 -26 -4 -7 -2 -8 5 -4 6 4 9 12 6 17 -3 5 1 6 9 3 9 -3 14 -10
11 -14 -3 -4 10 -11 28 -15 42 -10 36 -8 85 -34 34 -17 41 -25 32 -36 -8 -9
-8 -15 0 -20 6 -4 9 -1 8 6 -2 6 3 14 11 17 8 3 11 0 7 -7 -4 -6 -2 -9 7 -5 8
3 23 -3 33 -13 10 -10 24 -18 31 -18 22 0 164 -117 159 -131 -3 -7 0 -11 7 -8
7 2 25 -12 41 -33 16 -20 24 -33 16 -28 -9 6 -11 4 -6 -4 5 -7 15 -10 24 -6 9
3 13 3 9 -1 -4 -4 9 -25 30 -46 20 -21 38 -45 39 -54 1 -9 12 -22 22 -30 11
-8 28 -37 37 -64 9 -28 20 -48 25 -45 4 3 6 -5 3 -17 -3 -13 -2 -20 2 -15 7 5
37 -47 36 -60 0 -2 8 -23 19 -47 10 -24 16 -54 13 -65 -3 -13 1 -29 12 -41 10
-11 15 -26 12 -33 -3 -8 -1 -19 4 -24 5 -5 11 -23 12 -40 1 -17 5 -29 10 -26
12 7 8 51 -14 135 -113 446 -472 785 -928 878 -130 26 -338 27 -463 0z m239 4
c-3 -3 -12 -4 -19 -1 -8 3 -5 6 6 6 11 1 17 -2 13 -5z m1143 -889 c0 -5 -5 -3
-10 5 -5 8 -10 20 -10 25 0 6 5 3 10 -5 5 -8 10 -19 10 -25z"/>
<path d="M4033 6056 c-6 -7 -68 -57 -137 -111 -69 -53 -123 -102 -119 -108 3
-6 1 -7 -5 -3 -13 8 -101 -53 -102 -70 0 -6 7 -17 15 -24 13 -10 19 -9 35 5
16 14 18 21 8 27 -10 6 -8 8 4 6 17 -3 318 265 318 283 0 12 -3 11 -17 -5z
m-263 -240 c0 -3 -4 -8 -10 -11 -5 -3 -10 -1 -10 4 0 6 5 11 10 11 6 0 10 -2
10 -4z"/>
<path d="M1730 6046 c0 -2 8 -10 18 -17 15 -13 16 -12 3 4 -13 16 -21 21 -21
13z"/>
<path d="M1360 5936 c0 -2 35 -33 78 -68 44 -35 120 -98 170 -140 50 -43 95
-78 99 -78 5 0 14 9 21 20 11 18 -1 28 -165 137 -212 141 -203 135 -203 129z
m344 -244 c3 -5 -1 -9 -9 -9 -8 0 -12 4 -9 9 3 4 7 8 9 8 2 0 6 -4 9 -8z"/>
<path d="M2176 5901 c-4 -5 3 -7 14 -4 23 6 26 13 6 13 -8 0 -17 -4 -20 -9z"/>
<path d="M3906 5837 c3 -10 9 -15 12 -12 3 3 0 11 -7 18 -10 9 -11 8 -5 -6z"/>
<path d="M1015 5798 c137 -77 363 -205 452 -255 62 -35 119 -63 126 -63 8 0
19 11 25 25 10 22 9 27 -6 32 -23 8 -340 153 -481 219 -63 30 -119 54 -125 54
-6 0 -2 -6 9 -12z m440 -216 c-3 -3 -11 0 -18 7 -9 10 -8 11 6 5 10 -3 15 -9
12 -12z m41 -19 c-4 -5 12 -13 35 -18 42 -10 66 -35 34 -35 -9 0 -14 4 -11 9
4 5 -8 13 -26 16 -18 4 -36 9 -41 12 -8 5 0 23 10 23 4 0 3 -3 -1 -7z"/>
<path d="M1178 5783 c7 -3 16 -2 19 1 4 3 -2 6 -13 5 -11 0 -14 -3 -6 -6z"/>
<path d="M3222 5745 c-6 -11 -12 -16 -12 -11 0 5 -7 3 -15 -4 -8 -7 -12 -17
-8 -22 3 -6 0 -8 -8 -6 -15 5 -71 -50 -64 -62 2 -4 -6 -12 -18 -17 -23 -11
-59 -3 -58 12 1 4 -28 10 -65 12 -42 2 -63 0 -59 -7 3 -5 3 -10 -2 -11 -4 0
-26 -2 -48 -4 -22 -3 -59 -6 -82 -7 -22 -2 -40 -5 -38 -7 7 -7 -50 -48 -67
-48 -10 0 -23 13 -30 29 -7 15 -17 28 -22 28 -4 0 -6 6 -3 14 5 12 -10 15 -33
6 -3 -1 -8 -2 -12 -1 -5 0 -8 -6 -8 -15 0 -8 -4 -12 -10 -9 -5 3 -10 1 -10 -5
0 -7 -7 -10 -15 -6 -8 3 -15 1 -15 -4 0 -6 -11 -5 -25 2 -21 9 -23 14 -12 27
10 14 10 14 -4 3 -9 -7 -29 -10 -45 -7 -37 7 -90 -8 -86 -25 2 -8 -3 -10 -13
-6 -9 3 -14 2 -11 -3 3 -5 0 -14 -8 -20 -10 -8 -12 -24 -9 -51 4 -30 2 -41
-10 -46 -9 -3 -19 -20 -23 -37 -3 -18 -11 -38 -17 -45 -7 -9 -7 -16 1 -24 12
-12 34 -2 30 15 -4 24 14 75 32 92 15 13 17 22 9 41 -11 32 4 57 48 78 43 21
59 20 97 -3 41 -25 79 -17 113 23 15 17 24 23 20 14 -3 -9 1 -22 9 -28 8 -7
14 -18 14 -25 0 -8 14 -21 32 -29 39 -20 48 -20 48 -1 0 23 73 55 125 55 25 0
63 9 83 19 37 19 38 19 62 0 17 -12 42 -19 77 -19 50 0 53 1 114 65 34 36 68
65 75 65 12 0 34 -57 34 -87 0 -7 7 -10 16 -6 13 5 15 2 9 -17 -5 -16 -4 -20
5 -15 7 4 15 4 19 -1 3 -5 18 -15 33 -21 25 -11 26 -15 17 -45 -12 -43 -1
-110 21 -125 10 -7 20 -26 23 -43 5 -21 12 -30 26 -30 15 0 23 -10 31 -41 6
-23 14 -38 17 -35 8 8 10 75 2 70 -4 -2 -12 3 -19 11 -7 8 -20 15 -29 15 -14
0 -14 2 -1 10 9 6 10 10 3 10 -6 0 -15 10 -19 22 -4 13 -14 28 -22 34 -16 12
-21 61 -12 119 4 26 1 32 -28 45 -24 10 -32 19 -29 32 3 9 2 17 -2 16 -22 -2
-31 8 -56 59 -18 39 -29 53 -35 44 -6 -11 -8 -11 -12 0 -3 10 -8 8 -16 -6z
m-52 -58 c0 -2 -12 -14 -27 -28 -20 -18 -24 -19 -13 -4 18 24 40 42 40 32z
m-137 -59 c-6 -11 -31 -10 -37 1 -3 5 5 8 18 7 13 0 22 -4 19 -8z"/>
<path d="M3139 5713 c-13 -16 -12 -17 4 -4 16 13 21 21 13 21 -2 0 -10 -8 -17
-17z"/>
<path d="M2360 5640 c8 -5 20 -10 25 -10 6 0 3 5 -5 10 -8 5 -19 10 -25 10 -5
0 -3 -5 5 -10z"/>
<path d="M1290 5586 c7 -7 13 -7 20 0 6 6 3 10 -10 10 -13 0 -16 -4 -10 -10z"/>
<path d="M1070 5457 c6 -6 438 -167 450 -167 4 0 10 11 12 25 5 22 1 26 -31
34 -20 6 -119 31 -221 56 -101 26 -191 50 -200 53 -8 3 -13 3 -10 -1z m435
-137 c3 -5 1 -10 -4 -10 -6 0 -11 5 -11 10 0 6 2 10 4 10 3 0 8 -4 11 -10z"/>
<path d="M3560 5405 c0 -7 30 -13 34 -7 3 4 -4 9 -15 9 -10 1 -19 0 -19 -2z"/>
<path d="M3514 5382 c4 -3 14 -7 22 -8 9 -1 13 0 10 4 -4 3 -14 7 -22 8 -9 1
-13 0 -10 -4z"/>
<path d="M3570 5350 c-26 -28 -58 -88 -104 -196 -60 -142 -170 -450 -196 -550
-10 -42 -25 -53 -77 -58 -18 -1 -23 4 -23 21 0 30 -18 29 -30 -2 -8 -20 -13
-23 -32 -16 -12 4 -24 13 -26 19 -2 8 3 10 15 5 15 -6 16 -4 5 9 -7 9 -21 14
-32 11 -21 -5 -28 11 -10 22 6 3 10 12 10 18 0 8 -3 7 -9 -2 -5 -7 -13 -11
-18 -8 -5 3 -15 2 -23 -4 -10 -6 -11 -9 -2 -9 6 0 12 -4 12 -10 0 -5 -7 -10
-15 -10 -8 0 -15 -7 -15 -15 0 -8 -6 -12 -14 -9 -10 4 -13 0 -10 -13 4 -14 -2
-23 -21 -31 -33 -15 -35 -15 -35 3 0 8 -4 15 -10 15 -5 0 -10 -4 -10 -9 0 -10
-41 -23 -49 -16 -2 3 4 12 15 21 15 13 16 15 2 10 -12 -3 -16 0 -13 15 2 10 0
19 -6 19 -5 0 -9 -7 -9 -15 0 -8 -4 -15 -9 -15 -4 0 -6 -10 -4 -22 4 -19 0
-23 -21 -24 -14 -1 -23 2 -20 7 3 5 0 9 -5 9 -6 0 -11 -9 -11 -21 0 -19 -1
-19 -16 -5 -20 20 -25 20 -17 -1 4 -11 3 -14 -5 -9 -7 4 -12 2 -12 -4 0 -8 -9
-10 -25 -6 -19 5 -23 3 -19 -8 4 -11 0 -13 -15 -9 -26 7 -28 -13 -5 -39 16
-16 15 -19 -7 -37 -13 -11 -27 -20 -30 -21 -4 0 -11 -18 -17 -40 -8 -32 -8
-39 2 -31 7 6 16 8 20 4 4 -4 4 0 0 10 -4 11 4 29 25 52 17 20 31 43 31 53 1
15 2 15 11 -2 9 -14 8 -20 -2 -27 -9 -6 -10 -9 -2 -9 20 0 24 17 11 45 -7 16
-14 21 -18 14 -5 -7 -10 -7 -13 -2 -4 6 5 15 19 22 18 8 23 8 18 0 -5 -8 -1
-8 13 0 11 6 24 7 28 3 5 -4 5 -1 1 6 -4 6 -3 12 1 12 5 0 15 -6 22 -12 8 -8
11 -8 8 -2 -10 18 14 33 62 39 24 3 48 8 53 11 6 4 14 1 18 -7 7 -10 16 -9 49
6 23 10 41 22 41 27 0 5 4 6 10 3 5 -3 7 0 4 8 -3 8 2 20 11 27 12 10 15 10
15 0 0 -9 4 -9 17 1 14 12 14 9 -2 -16 -10 -16 -12 -24 -5 -17 16 13 34 17 26
4 -2 -4 11 -9 30 -10 19 -2 34 2 34 8 0 5 5 10 11 10 5 0 8 -4 5 -9 -11 -17
58 -20 77 -3 23 20 22 17 -17 -144 -42 -169 -81 -363 -101 -504 -8 -58 -17
-121 -20 -140 -33 -225 -44 -685 -21 -950 10 -107 20 -198 24 -201 4 -4 34 -9
67 -11 l60 -4 1 146 c1 167 24 287 79 406 131 286 304 206 436 -199 52 -160
87 -205 138 -177 30 16 42 74 35 175 -11 168 25 426 86 617 46 142 157 357
248 478 172 230 419 420 684 525 78 31 103 54 94 88 -14 58 -100 59 -321 2
-156 -40 -297 -92 -465 -173 -188 -91 -266 -115 -344 -110 -36 2 -68 6 -70 9
-3 3 8 38 24 78 17 40 30 78 30 85 1 31 16 36 56 15 54 -28 159 -23 229 11
122 59 215 200 223 339 5 95 -8 146 -53 198 -124 145 -374 63 -480 -157 -58
-123 -56 -236 6 -326 27 -40 28 -48 7 -45 -4 0 -5 -9 -3 -20 3 -16 1 -18 -9
-10 -11 9 -13 4 -10 -24 1 -23 -5 -43 -19 -62 -12 -15 -17 -24 -10 -20 8 5 8
1 0 -17 l-12 -25 -27 26 c-83 80 -128 384 -106 720 11 174 8 203 -22 233 -28
28 -38 25 -80 -20z m50 0 c-9 -6 -10 -10 -3 -10 6 0 15 5 19 11 15 25 26 -26
25 -113 -1 -50 -4 -94 -7 -99 -2 -4 -5 -79 -6 -166 -2 -143 3 -189 32 -362 6
-29 7 -58 3 -64 -3 -6 -1 -7 5 -3 11 7 17 -6 13 -28 -1 -5 2 -12 6 -15 12 -9
36 -54 24 -47 -5 4 -13 1 -17 -6 -4 -7 -3 -10 1 -5 10 8 65 -41 65 -57 0 -6
-5 -4 -11 4 -9 13 -10 13 -6 0 2 -8 10 -14 16 -12 7 1 26 -11 44 -28 18 -16
39 -30 47 -29 10 0 9 3 -5 10 -15 7 -11 8 16 4 49 -7 158 19 248 61 40 19 82
34 92 34 11 0 19 4 19 8 0 12 49 34 60 27 5 -3 12 0 16 6 5 8 3 9 -6 4 -9 -5
-11 -4 -6 4 4 6 11 9 16 6 13 -8 41 6 33 17 -4 7 4 9 21 6 15 -3 24 -3 21 0
-7 8 46 33 56 26 5 -3 9 -1 9 3 0 12 68 36 80 28 5 -3 10 -2 10 2 0 18 238 81
283 75 10 -1 16 2 13 7 -9 14 112 25 128 12 7 -6 15 -9 17 -6 3 2 5 -5 6 -16
3 -35 -75 -70 -106 -47 -13 10 -14 10 -3 -2 13 -16 16 -31 5 -28 -5 1 -27 -8
-51 -20 -23 -13 -47 -20 -52 -17 -5 3 -12 0 -16 -6 -5 -8 -3 -9 6 -4 8 5 11 4
6 -3 -4 -6 -13 -9 -21 -6 -8 4 -12 11 -8 17 3 6 1 7 -6 3 -9 -6 -9 -11 1 -24
11 -13 11 -14 -2 -10 -8 2 -19 1 -25 -4 -35 -29 -106 -69 -115 -63 -6 4 -7 -1
-3 -11 4 -11 3 -15 -5 -10 -6 3 -13 2 -17 -4 -4 -6 -12 -7 -18 -4 -7 4 -9 4
-5 -1 10 -11 -33 -47 -48 -41 -8 3 -11 -1 -8 -8 5 -13 -33 -46 -69 -59 -9 -4
-20 -14 -23 -22 -4 -9 -38 -48 -77 -88 -39 -40 -72 -74 -72 -77 -1 -16 -59
-79 -68 -73 -6 3 -7 1 -3 -5 8 -13 -10 -52 -33 -69 -9 -7 -12 -13 -7 -13 4 0
-8 -20 -28 -44 -36 -44 -45 -63 -26 -51 16 10 12 0 -9 -24 -11 -13 -24 -21
-28 -18 -5 3 -9 -3 -9 -14 0 -10 4 -19 9 -19 5 0 -1 -12 -12 -26 -12 -15 -21
-35 -21 -46 0 -12 -4 -17 -12 -12 -7 5 -9 2 -5 -8 3 -9 3 -19 -1 -23 -4 -4 -7
-10 -7 -13 0 -8 -21 -62 -41 -109 -8 -17 -14 -40 -14 -52 0 -12 -6 -21 -12
-21 -10 0 -10 -2 0 -9 9 -5 10 -15 4 -32 -29 -75 -45 -219 -55 -512 -2 -59 -8
-112 -14 -118 -15 -15 -49 5 -68 40 -25 49 -65 182 -58 194 3 6 1 7 -5 3 -8
-5 -12 2 -12 18 0 14 -5 26 -12 26 -6 0 -9 3 -5 6 3 4 -5 27 -19 51 -13 24
-21 49 -18 55 4 6 3 8 -3 5 -13 -8 -37 38 -28 54 5 8 4 10 -4 5 -15 -9 -52 34
-45 53 4 12 2 12 -13 0 -15 -12 -16 -12 -10 4 4 11 3 16 -4 12 -5 -4 -15 -2
-22 3 -23 18 -73 21 -101 7 -15 -8 -24 -10 -21 -5 4 6 2 10 -4 10 -5 0 -11 -6
-14 -12 -3 -10 -9 -10 -28 1 -16 9 -20 9 -12 1 14 -15 7 -37 -24 -70 -13 -14
-23 -31 -23 -38 0 -7 -4 -10 -10 -7 -5 3 -10 -1 -10 -10 0 -10 -5 -14 -12 -9
-10 5 -10 4 -1 -6 10 -11 10 -17 -1 -29 -7 -9 -24 -47 -36 -86 -13 -38 -28
-74 -34 -78 -8 -6 -7 -10 2 -14 6 -2 9 -10 5 -16 -11 -18 -13 -31 -20 -194
l-6 -152 -31 5 c-17 3 -36 7 -42 9 -7 2 -14 41 -17 97 -3 51 -9 107 -12 123
-8 40 -8 555 1 625 3 30 7 84 9 120 5 111 14 213 26 270 6 30 12 69 13 85 1
17 5 35 9 42 4 7 5 24 1 39 -5 18 -3 25 4 21 6 -4 10 4 9 21 -1 15 0 45 2 67
2 32 4 36 11 20 6 -15 8 -10 7 20 0 41 4 63 15 80 7 12 23 106 20 118 -1 5 3
5 9 1 9 -5 10 -1 6 15 -5 21 3 57 29 119 8 18 10 31 4 27 -5 -3 2 16 15 44 14
28 23 57 19 68 -5 15 -4 15 5 3 9 -12 11 -10 11 12 0 14 9 47 20 73 11 25 16
44 11 41 -4 -3 2 21 13 54 11 32 25 56 30 53 5 -4 7 1 3 10 -3 10 -2 17 3 17
5 0 6 7 3 17 -5 11 -3 14 6 8 10 -5 11 -2 6 14 -4 13 -1 28 6 37 7 9 14 21 15
28 1 6 8 25 15 41 7 17 11 34 10 38 -1 5 3 6 8 3 5 -3 12 12 16 34 4 25 11 38
17 33 7 -3 8 -1 4 5 -3 6 5 34 18 63 14 28 23 56 20 61 -3 4 0 7 7 6 6 -2 14
3 17 11 3 9 0 11 -9 7 -8 -4 -5 -1 5 8 10 8 23 13 29 9 6 -3 7 -1 3 5 -3 6 2
15 11 21 22 12 33 4 13 -9z m634 -221 c35 -16 41 -25 13 -20 -5 1 -6 -3 -2 -9
4 -7 12 -7 25 0 13 7 21 7 26 -2 5 -7 2 -9 -7 -4 -8 4 -4 -1 9 -10 12 -9 22
-24 22 -33 0 -9 5 -22 11 -28 16 -16 21 -166 6 -156 -7 4 -6 0 2 -10 10 -13
10 -17 1 -17 -7 0 -10 -7 -6 -15 3 -8 1 -15 -4 -15 -5 0 -15 -18 -21 -39 -7
-22 -29 -58 -50 -80 -20 -23 -35 -41 -32 -41 3 0 -7 -10 -23 -22 -16 -13 -34
-22 -40 -20 -7 1 -16 -3 -20 -9 -5 -8 -3 -9 6 -4 9 5 11 4 6 -3 -4 -7 -14 -12
-23 -12 -9 0 -22 -8 -30 -17 -8 -10 -12 -12 -8 -5 7 14 -11 17 -20 2 -7 -11
-104 -14 -129 -4 -12 5 -14 10 -6 19 8 9 4 11 -16 7 -17 -3 -25 -1 -21 6 4 5
0 13 -9 16 -9 3 -12 2 -8 -5 4 -6 -1 -6 -13 1 -37 23 -58 88 -58 176 0 71 3
85 20 99 18 13 18 14 2 9 -17 -6 -18 -5 -5 17 7 13 19 28 26 34 7 6 12 15 11
20 -4 16 12 45 22 39 5 -3 9 4 9 15 0 12 4 21 9 21 5 0 28 16 51 35 29 25 49
34 64 30 11 -2 15 -2 9 1 -7 3 -13 11 -13 17 0 5 3 7 7 4 3 -4 11 -2 18 3 6 5
29 12 51 16 21 3 40 7 42 9 9 8 61 0 96 -16z"/>
<path d="M3621 5134 c0 -11 3 -14 6 -6 3 7 2 16 -1 19 -3 4 -6 -2 -5 -13z"/>
<path d="M3495 5110 c3 -5 8 -10 11 -10 2 0 4 5 4 10 0 6 -5 10 -11 10 -5 0
-7 -4 -4 -10z"/>
<path d="M3633 4955 c0 -33 2 -45 4 -27 2 18 2 45 0 60 -2 15 -4 0 -4 -33z"/>
<path d="M3621 4793 c-1 -6 -4 -20 -7 -30 -5 -17 -5 -17 6 0 6 10 9 23 6 30
-3 9 -5 9 -5 0z"/>
<path d="M3345 4719 c-4 -6 -5 -12 -2 -15 2 -3 7 2 10 11 7 17 1 20 -8 4z"/>
<path d="M4963 4643 c4 -3 1 -13 -6 -22 -11 -14 -10 -14 6 -2 20 15 22 31 5
31 -6 0 -8 -3 -5 -7z"/>
<path d="M4360 4480 c-9 -6 -10 -10 -3 -10 6 0 15 5 18 10 8 12 4 12 -15 0z"/>
<path d="M3727 4409 c7 -7 15 -10 18 -7 3 3 -2 9 -12 12 -14 6 -15 5 -6 -5z"/>
<path d="M4170 4405 c-14 -8 -20 -14 -14 -15 5 0 19 7 30 15 24 18 16 19 -16
0z"/>
<path d="M3181 4074 c0 -11 3 -14 6 -6 3 7 2 16 -1 19 -3 4 -6 -2 -5 -13z"/>
<path d="M4166 4017 c3 -10 9 -15 12 -12 3 3 0 11 -7 18 -10 9 -11 8 -5 -6z"/>
<path d="M3191 4004 c0 -11 3 -14 6 -6 3 7 2 16 -1 19 -3 4 -6 -2 -5 -13z"/>
<path d="M3882 3110 c0 -14 2 -19 5 -12 2 6 2 18 0 25 -3 6 -5 1 -5 -13z"/>
<path d="M3871 2944 c0 -11 3 -14 6 -6 3 7 2 16 -1 19 -3 4 -6 -2 -5 -13z"/>
<path d="M3101 2914 c0 -11 3 -14 6 -6 3 7 2 16 -1 19 -3 4 -6 -2 -5 -13z"/>
<path d="M3860 2831 c0 -7 -4 -10 -9 -6 -5 3 -13 0 -17 -6 -4 -8 -3 -9 4 -5 8
4 12 0 13 -11 0 -14 3 -12 10 6 5 13 7 26 4 29 -3 3 -5 0 -5 -7z"/>
<path d="M3976 5022 c-3 -5 1 -9 9 -9 8 0 12 4 9 9 -3 4 -7 8 -9 8 -2 0 -6 -4
-9 -8z"/>
<path d="M3980 4570 c-9 -6 -10 -10 -3 -10 6 0 15 5 18 10 8 12 4 12 -15 0z"/>
<path d="M2285 5353 c-4 -10 -9 -29 -10 -43 -2 -14 -6 -40 -9 -57 -3 -19 -1
-33 4 -33 6 0 10 9 10 20 0 12 9 38 20 60 18 36 18 70 0 70 -4 0 -11 -8 -15
-17z m15 -13 c0 -5 -5 -10 -11 -10 -5 0 -7 5 -4 10 3 6 8 10 11 10 2 0 4 -4 4
-10z"/>
<path d="M2240 5350 c0 -5 5 -10 11 -10 5 0 7 5 4 10 -3 6 -8 10 -11 10 -2 0
-4 -4 -4 -10z"/>
<path d="M797 5210 c8 -8 632 -111 664 -110 14 0 37 47 27 54 -2 2 -136 13
-298 26 -162 12 -319 26 -348 30 -29 4 -49 3 -45 0z m673 -82 c0 -10 -39 -9
-65 2 -15 7 -10 9 23 8 23 -1 42 -6 42 -10z"/>
<path d="M2250 5210 c0 -4 9 -10 21 -13 13 -4 18 -10 13 -18 -4 -7 -3 -10 4
-5 6 3 13 2 17 -4 3 -5 14 -10 23 -10 9 0 39 -11 66 -25 27 -13 53 -22 57 -19
9 5 4 -30 -6 -46 -3 -6 -1 -10 5 -10 6 0 8 -5 5 -10 -4 -6 -11 -8 -16 -5 -5 3
-6 0 -4 -7 3 -8 -2 -22 -11 -33 -15 -19 -15 -19 -10 -1 6 16 4 17 -9 6 -8 -7
-13 -16 -10 -20 5 -9 -53 -32 -64 -26 -3 2 -7 -9 -8 -24 l-2 -28 26 24 c14 13
33 24 42 24 19 1 61 34 61 48 0 5 7 16 16 23 13 10 15 25 10 72 -4 45 -2 59 9
64 8 3 15 9 15 14 0 17 -42 -12 -47 -32 -7 -25 -20 -24 -33 1 -6 11 -15 18
-20 15 -5 -3 -19 4 -30 15 -18 18 -24 19 -37 9 -12 -11 -17 -10 -27 2 -12 17
-56 32 -56 19z"/>
<path d="M1591 5114 c0 -11 3 -14 6 -6 3 7 2 16 -1 19 -3 4 -6 -2 -5 -13z"/>
<path d="M2192 5078 c2 -9 -6 -12 -26 -10 -54 6 -54 -21 0 -172 112 -309 133
-531 64 -692 -18 -41 -21 -43 -45 -34 -18 7 -25 6 -25 -3 -1 -22 -99 -117
-122 -117 -4 0 -13 11 -18 25 -8 22 -13 24 -35 15 -34 -13 -58 -13 -50 0 3 6
2 10 -4 10 -15 0 -23 -18 -9 -22 7 -3 8 -10 4 -17 -5 -7 -11 -9 -15 -4 -3 5
-16 16 -28 24 -22 15 -22 16 27 27 67 16 96 36 128 91 24 40 27 57 27 131 0
76 -4 93 -32 150 -33 67 -35 108 -7 131 9 7 14 32 14 70 0 56 1 59 28 65 39
10 51 21 63 67 7 27 13 36 19 28 6 -10 9 -10 15 -1 11 18 -4 25 -26 12 -11 -7
-23 -10 -28 -8 -4 3 -6 -6 -3 -19 2 -15 0 -25 -7 -25 -7 0 -10 -4 -6 -9 7 -13
-32 -34 -47 -25 -7 4 -8 3 -4 -4 4 -7 3 -12 -3 -12 -5 0 -16 -14 -25 -30 -8
-17 -11 -28 -7 -26 11 7 10 -57 -1 -71 -6 -7 -14 -10 -19 -7 -5 3 -4 -7 1 -22
6 -15 8 -29 6 -32 -3 -2 -30 18 -61 46 -82 75 -174 99 -253 66 -90 -37 -129
-116 -120 -239 7 -81 44 -161 105 -226 44 -47 125 -99 155 -99 7 0 42 -29 77
-65 36 -36 67 -63 69 -60 3 2 -1 11 -8 20 -7 8 -9 15 -4 15 5 0 0 7 -10 15
-24 18 -20 22 23 30 23 4 31 2 25 -6 -4 -8 -3 -9 5 -5 6 4 14 0 17 -8 8 -21
15 -20 57 8 19 13 39 21 43 18 4 -4 4 -1 0 6 -4 7 -1 12 8 12 8 0 18 5 22 12
5 7 2 8 -7 3 -8 -4 1 6 19 24 18 17 35 31 38 31 12 0 0 -22 -37 -64 -55 -62
-146 -111 -266 -143 -92 -24 -110 -26 -293 -23 -420 6 -416 6 -434 -9 -15 -13
-15 -15 1 -33 25 -28 71 -50 229 -109 380 -140 540 -274 601 -502 22 -81 22
-305 -1 -439 -9 -54 -16 -99 -16 -101 0 -1 44 2 98 9 53 6 98 10 100 9 1 -1
-11 -53 -28 -115 -17 -62 -29 -114 -27 -116 2 -2 49 4 104 13 l100 17 22 67
c12 36 32 93 45 125 l24 58 98 33 c71 24 100 30 105 21 4 -6 22 -70 41 -141
l33 -129 44 6 c24 3 56 6 71 6 l27 0 -43 162 c-23 90 -42 163 -41 164 1 1 45
23 97 49 52 26 97 49 99 51 2 2 -10 33 -28 69 -53 111 -97 258 -206 691 -58
230 -105 419 -105 421 0 2 -4 1 -10 -2 -5 -3 -7 0 -4 8 11 30 -105 348 -190
517 -63 127 -143 254 -185 294 -22 21 -28 33 -20 42 7 8 7 14 -1 19 -6 4 -9 1
-8 -7z m-2 -48 c-10 23 -9 23 15 -5 33 -37 46 -70 39 -92 -5 -14 -4 -15 4 -4
7 9 12 10 16 2 4 -6 12 -9 17 -6 5 3 6 -1 3 -9 -3 -9 -1 -16 5 -16 6 0 8 -7 5
-15 -4 -8 -2 -15 4 -15 5 0 15 -13 22 -30 7 -16 16 -27 21 -24 5 3 6 -1 3 -9
-3 -8 -1 -18 5 -22 6 -3 11 -15 11 -26 0 -13 4 -18 12 -13 7 5 8 3 3 -6 -4 -7
-3 -15 2 -19 15 -10 92 -159 86 -165 -3 -3 0 -12 6 -20 7 -8 14 -27 15 -43 2
-15 4 -32 5 -36 0 -5 5 -6 9 -3 4 2 9 -4 9 -15 1 -12 -2 -17 -10 -12 -7 3 -4
-3 6 -14 10 -11 27 -46 38 -78 11 -31 26 -67 34 -79 9 -13 12 -26 8 -29 -7 -7
15 -86 29 -102 4 -5 8 -20 8 -35 0 -14 7 -45 16 -70 19 -54 35 -126 38 -162 0
-14 4 -24 7 -22 7 4 26 -67 27 -96 1 -28 14 -85 23 -102 5 -9 6 -24 3 -32 -3
-9 -2 -16 3 -16 5 0 10 -8 10 -17 -1 -52 4 -84 11 -79 4 2 9 -4 9 -15 1 -11
10 -43 19 -72 9 -28 18 -58 19 -66 1 -9 7 -29 13 -46 49 -122 73 -195 67 -205
-3 -5 0 -12 6 -16 8 -4 9 -3 5 4 -4 7 -5 12 -2 12 3 0 10 -9 16 -20 9 -17 6
-24 -17 -45 -15 -13 -35 -22 -43 -19 -8 3 -11 2 -7 -2 9 -9 -41 -35 -78 -40
-22 -2 -26 -1 -15 6 9 6 10 10 3 10 -19 0 -27 -21 -12 -31 9 -6 10 -9 2 -9 -8
0 -10 -11 -6 -32 4 -18 6 -51 5 -72 0 -27 3 -35 9 -25 6 10 9 8 10 -11 1 -14
1 -31 0 -37 -1 -7 3 -13 10 -13 6 0 9 -6 6 -14 -3 -7 1 -31 8 -52 22 -61 20
-66 -27 -62 -36 2 -44 7 -46 26 -2 12 -7 22 -12 22 -8 0 -20 55 -21 98 -1 12
-6 22 -11 22 -6 0 -7 7 -4 16 7 18 -19 74 -35 74 -6 0 -7 6 -3 13 6 9 4 9 -8
-1 -13 -10 -17 -10 -21 0 -4 10 -7 10 -14 1 -13 -19 -124 -54 -154 -49 -17 2
-26 -1 -26 -10 0 -11 4 -11 16 -2 9 6 4 -1 -11 -16 -16 -15 -28 -35 -28 -45 0
-10 -3 -21 -7 -25 -5 -4 -8 -11 -8 -14 -2 -24 -18 -51 -27 -46 -7 4 -8 2 -4
-5 7 -11 -11 -77 -26 -95 -4 -5 -16 -11 -25 -12 -10 -1 -31 -5 -48 -8 -72 -17
-90 -10 -75 28 5 12 16 48 25 81 10 33 23 67 29 75 5 8 7 12 2 8 -5 -4 -15 -1
-23 7 -16 16 -37 17 -126 6 l-59 -7 7 35 c4 19 8 55 11 80 6 77 14 145 20 173
3 15 1 51 -5 80 -5 29 -12 76 -15 103 -5 54 -31 137 -53 172 -15 22 -9 68 7
58 5 -3 12 0 16 6 4 8 3 9 -4 5 -7 -4 -12 -1 -13 6 0 10 -2 10 -6 0 -2 -6 -10
-9 -16 -5 -6 4 -8 0 -4 -10 3 -9 1 -19 -6 -23 -7 -4 -9 -4 -5 1 4 4 -1 19 -12
33 -11 13 -17 28 -14 33 3 5 -3 6 -13 2 -16 -6 -16 -5 -4 10 12 15 12 17 -4
10 -15 -5 -17 -3 -12 12 7 16 5 16 -10 4 -15 -12 -16 -12 -10 5 6 14 4 17 -8
12 -9 -3 -15 0 -15 9 0 8 -7 15 -16 15 -9 0 -12 5 -8 12 5 7 2 9 -9 5 -9 -3
-17 -3 -19 1 -7 16 -123 87 -137 84 -12 -3 -13 -1 -2 11 9 12 9 17 0 23 -8 4
-9 3 -5 -4 10 -16 -7 -15 -23 1 -11 10 -12 9 -7 -1 5 -8 -8 -5 -30 7 -21 12
-44 21 -51 21 -7 0 -13 4 -13 9 0 9 -56 26 -63 19 -2 -2 -11 5 -21 15 -10 9
-21 15 -25 13 -11 -7 -111 30 -103 39 4 5 0 6 -9 3 -9 -4 -22 -2 -29 2 -11 7
-11 11 1 26 13 17 13 17 -12 1 -25 -17 -27 -17 -50 2 -13 11 -21 22 -18 26 11
10 148 10 259 0 58 -5 155 -8 215 -6 61 3 126 5 147 5 20 1 34 4 32 8 -4 6 83
24 99 20 4 -1 7 3 7 9 0 6 7 8 16 5 8 -3 12 -2 9 4 -3 6 1 10 9 10 9 0 16 5
16 10 0 6 12 10 26 10 14 0 23 4 19 10 -9 15 2 12 19 -6 9 -8 17 -11 17 -5 1
6 2 16 3 23 0 7 17 23 36 36 19 13 34 28 33 33 -2 5 3 9 11 9 8 0 17 7 20 16
3 8 10 13 14 10 5 -3 14 6 21 20 9 20 9 24 -1 19 -7 -4 -5 0 4 8 22 18 53 91
63 147 12 70 7 266 -8 310 -14 40 -46 184 -42 188 2 2 -2 11 -10 19 -8 8 -15
23 -15 34 0 11 -4 18 -8 15 -13 -8 -62 148 -48 156 8 6 8 8 -1 8 -7 0 -10 7
-6 16 5 13 10 11 30 -13 23 -27 24 -27 13 -3z m-405 -360 c-3 -5 3 -10 13 -10
35 0 89 -28 123 -64 18 -19 37 -32 43 -29 6 4 4 -2 -4 -12 -8 -10 -10 -16 -3
-12 12 8 51 -47 58 -82 2 -12 7 -27 11 -33 12 -19 16 -48 17 -110 0 -43 -6
-64 -24 -89 -12 -18 -16 -29 -8 -24 7 4 1 -5 -16 -22 -29 -29 -69 -55 -90 -59
-5 -1 -14 -3 -20 -5 -24 -6 -112 29 -143 59 -7 6 -18 12 -23 12 -6 0 -7 5 -3
11 4 7 1 10 -7 7 -8 -3 -22 4 -31 15 -20 22 -23 31 -8 22 6 -3 7 1 4 9 -3 9
-12 16 -20 16 -20 0 -67 108 -59 139 4 19 3 22 -4 12 -7 -10 -9 6 -7 50 4 74
44 177 63 158 8 -8 11 -6 10 7 -2 16 9 21 63 30 36 7 66 12 68 13 2 1 0 -3 -3
-9z"/>
<path d="M2416 4617 c3 -10 9 -15 12 -12 3 3 0 11 -7 18 -10 9 -11 8 -5 -6z"/>
<path d="M2566 4132 c-3 -5 1 -9 9 -9 8 0 12 4 9 9 -3 4 -7 8 -9 8 -2 0 -6 -4
-9 -8z"/>
<path d="M2211 4073 c-1 -17 16 -25 25 -12 4 7 3 9 -4 5 -5 -3 -13 0 -15 6 -4
9 -6 10 -6 1z"/>
<path d="M1958 3913 c7 -3 16 -2 19 1 4 3 -2 6 -13 5 -11 0 -14 -3 -6 -6z"/>
<path d="M1210 3885 c0 -7 30 -13 34 -7 3 4 -4 9 -15 9 -10 1 -19 0 -19 -2z"/>
<path d="M2682 3770 c0 -14 2 -19 5 -12 2 6 2 18 0 25 -3 6 -5 1 -5 -13z"/>
<path d="M1795 3640 c-7 -11 -8 -11 23 -14 27 -3 28 0 3 14 -13 7 -22 7 -26 0z"/>
<path d="M1976 3432 c-2 -4 -1 -14 4 -22 7 -11 9 -9 7 8 -1 24 -3 26 -11 14z"/>
<path d="M2806 3277 c3 -10 9 -15 12 -12 3 3 0 11 -7 18 -10 9 -11 8 -5 -6z"/>
<path d="M2723 2995 c0 -7 6 -11 14 -8 7 3 13 6 13 8 0 2 -6 5 -13 8 -8 3 -14
-1 -14 -8z"/>
<path d="M2604 2922 c4 -3 14 -7 22 -8 9 -1 13 0 10 4 -4 3 -14 7 -22 8 -9 1
-13 0 -10 -4z"/>
<path d="M2725 2850 c-3 -5 -1 -10 4 -10 6 0 11 5 11 10 0 6 -2 10 -4 10 -3 0
-8 -4 -11 -10z"/>
<path d="M2326 2743 c-6 -14 -5 -15 5 -6 7 7 10 15 7 18 -3 3 -9 -2 -12 -12z"/>
<path d="M2721 2734 c0 -11 3 -14 6 -6 3 7 2 16 -1 19 -3 4 -6 -2 -5 -13z"/>
<path d="M1844 4632 c3 -6 0 -12 -6 -15 -7 -2 -1 -4 14 -3 34 1 34 2 7 17 -13
6 -19 7 -15 1z"/>
<path d="M1671 4294 c0 -11 3 -14 6 -6 3 7 2 16 -1 19 -3 4 -6 -2 -5 -13z"/>
<path d="M1736 4202 c-3 -5 1 -9 9 -9 8 0 12 4 9 9 -3 4 -7 8 -9 8 -2 0 -6 -4
-9 -8z"/>
<path d="M2225 5081 c-3 -5 -2 -12 3 -15 5 -3 9 1 9 9 0 17 -3 19 -12 6z"/>
<path d="M1581 5014 c0 -11 3 -14 6 -6 3 7 2 16 -1 19 -3 4 -6 -2 -5 -13z"/>
<path d="M2110 4941 c0 -6 4 -13 10 -16 6 -3 7 1 4 9 -7 18 -14 21 -14 7z"/>
<path d="M4985 4540 c-3 -6 1 -7 9 -4 18 7 21 14 7 14 -6 0 -13 -4 -16 -10z"/>
<path d="M2908 4453 c7 -3 16 -2 19 1 4 3 -2 6 -13 5 -11 0 -14 -3 -6 -6z"/>
<path d="M3122 4320 c0 -14 2 -19 5 -12 2 6 2 18 0 25 -3 6 -5 1 -5 -13z"/>
<path d="M2687 4111 c-4 -17 -3 -21 5 -13 5 5 8 16 6 23 -3 8 -7 3 -11 -10z"/>
<path d="M1970 4026 c0 -2 7 -7 16 -10 8 -3 12 -2 9 4 -6 10 -25 14 -25 6z"/>
<path d="M2701 4014 c0 -11 3 -14 6 -6 3 7 2 16 -1 19 -3 4 -6 -2 -5 -13z"/>
<path d="M3001 3749 c-33 -13 -201 -37 -196 -28 3 4 -2 9 -10 12 -9 4 -12 1
-9 -8 4 -10 0 -12 -15 -8 -13 3 -21 1 -21 -7 0 -25 295 11 324 40 13 13 -40
12 -73 -1z"/>
<path d="M860 2798 c0 -4 5 -19 11 -35 25 -65 97 -473 83 -473 -2 0 -24 23
-50 50 -57 61 -162 132 -244 166 -33 13 -62 24 -66 24 -4 0 23 -31 59 -69 76
-81 130 -158 179 -256 34 -66 88 -206 88 -225 0 -5 -44 -39 -97 -75 -89 -61
-99 -65 -108 -48 -5 10 -39 48 -75 84 -70 71 -137 104 -229 115 l-46 6 42 -22
c81 -42 162 -149 188 -250 l11 -44 -46 -37 c-57 -45 -267 -237 -300 -275 l-25
-28 30 19 c315 198 792 426 1083 518 194 62 308 82 472 82 160 0 206 -12 229
-61 25 -55 -6 -112 -134 -244 -154 -157 -198 -242 -143 -271 57 -31 246 21
468 127 157 76 254 133 403 237 131 92 273 163 432 216 306 102 734 143 854
81 51 -25 66 -56 75 -155 14 -143 48 -156 361 -140 168 8 243 0 420 -45 222
-57 489 -175 785 -347 14 -8 -20 28 -75 81 -84 81 -212 190 -384 325 l-33 26
23 50 c33 73 104 181 161 248 27 31 47 57 44 57 -3 0 -40 -21 -83 -46 -96 -56
-197 -131 -242 -178 -19 -20 -39 -36 -43 -36 -7 0 -61 32 -97 57 -2 2 6 37 18
80 29 100 96 241 155 326 l47 68 -48 -27 c-117 -67 -303 -216 -303 -243 0 -8
5 -9 19 -2 10 6 22 7 26 3 5 -4 5 -2 2 4 -3 6 15 31 40 55 25 24 42 37 38 29
-7 -12 -6 -13 7 -3 8 7 19 9 24 5 4 -4 3 0 -4 9 -10 14 -10 18 3 23 9 3 14 2
11 -2 -3 -5 1 -9 9 -9 8 0 12 4 9 9 -3 5 0 15 6 23 16 19 36 20 24 2 -5 -7 1
-2 13 12 12 14 25 22 29 18 4 -4 2 -7 -4 -7 -7 0 -12 -6 -12 -14 0 -7 -7 -19
-15 -26 -8 -7 -15 -21 -15 -32 0 -13 -5 -18 -14 -15 -10 4 -14 0 -11 -14 2
-10 -3 -31 -11 -46 -7 -16 -14 -34 -14 -40 0 -7 -4 -13 -10 -13 -5 0 -6 -7 -3
-17 4 -10 2 -14 -5 -9 -6 3 -14 1 -18 -5 -4 -8 -3 -9 4 -5 16 9 15 3 -4 -42
-8 -20 -16 -49 -16 -64 -1 -16 -5 -25 -12 -22 -6 3 -2 -1 8 -10 11 -9 32 -27
48 -41 16 -14 33 -23 38 -20 5 3 11 1 15 -5 14 -22 76 11 104 55 11 18 12 18
7 1 -6 -16 -4 -17 9 -6 8 7 12 17 8 23 -4 6 0 8 11 4 10 -4 15 -3 11 3 -3 6
-1 10 4 10 6 0 20 9 31 20 12 12 26 18 32 14 7 -4 8 -3 4 4 -4 6 4 16 16 23
13 7 26 17 30 23 5 8 8 7 8 -2 0 -7 -6 -15 -14 -18 -8 -3 -12 -12 -9 -20 3 -8
0 -14 -6 -14 -6 0 -11 -6 -11 -13 0 -8 -9 -22 -20 -32 -11 -10 -17 -22 -14
-26 3 -5 0 -9 -5 -9 -6 0 -11 -7 -11 -16 0 -8 -4 -12 -10 -9 -5 3 -8 0 -5 -7
3 -7 -3 -29 -14 -48 -22 -42 -15 -65 35 -99 31 -22 50 -52 22 -35 -10 6 -10 4
0 -8 7 -9 20 -14 30 -12 9 2 28 -5 42 -17 14 -11 19 -17 11 -13 -9 5 -12 3 -7
-5 4 -6 11 -9 16 -6 5 3 17 -6 28 -20 11 -14 25 -25 31 -25 6 0 11 -5 11 -11
0 -5 -4 -8 -8 -5 -4 2 -14 0 -22 -5 -11 -7 -6 -8 15 -5 17 3 35 0 45 -9 8 -7
20 -14 25 -15 6 -1 9 -6 8 -11 -2 -5 0 -9 5 -9 4 0 18 -9 31 -19 20 -16 21
-19 7 -24 -10 -4 -15 -3 -12 2 3 5 -2 12 -12 15 -31 11 -62 33 -56 39 3 3 -4
3 -17 0 -16 -4 -20 -3 -15 6 5 8 3 11 -5 10 -20 -4 -59 11 -59 22 0 5 -3 8 -7
8 -5 -1 -11 0 -15 1 -5 1 -11 3 -15 4 -5 1 -22 9 -39 19 -17 9 -34 13 -38 10
-3 -4 -6 -1 -6 6 0 8 -6 11 -16 7 -10 -4 -13 -2 -8 6 5 8 2 9 -9 5 -10 -3 -17
-2 -17 3 0 6 -3 9 -7 8 -16 -3 -93 25 -93 35 0 5 -7 6 -16 3 -10 -4 -13 -2 -8
6 5 8 2 9 -9 5 -9 -3 -32 0 -50 8 -19 8 -37 11 -41 8 -3 -4 -6 0 -6 7 0 7 -2
11 -6 8 -3 -3 -37 3 -77 13 -40 11 -119 22 -177 25 -58 2 -135 6 -172 8 -38 2
-66 1 -64 -3 8 -12 -142 -13 -200 -1 -46 10 -53 14 -43 26 10 12 9 13 -6 8
-13 -5 -16 -4 -11 4 4 8 2 10 -8 6 -11 -4 -16 6 -22 43 -4 26 -8 65 -8 85 -1
21 -4 38 -7 38 -7 0 -22 39 -20 52 0 4 -7 4 -16 1 -10 -4 -14 -2 -10 4 7 11
-49 38 -102 49 -26 5 -30 9 -20 16 10 7 8 8 -6 2 -11 -4 -69 -8 -130 -10 -124
-2 -212 -9 -300 -25 -33 -6 -76 -12 -95 -13 -20 -1 -41 -6 -48 -10 -7 -4 -22
-4 -35 -1 -17 5 -19 4 -7 -4 13 -9 12 -11 -5 -12 -25 -2 -36 -5 -55 -11 -48
-17 -136 -42 -142 -40 -5 1 -8 -2 -8 -6 0 -5 -14 -8 -30 -7 -17 1 -28 0 -25
-3 5 -6 -105 -62 -121 -62 -6 0 -17 -7 -24 -15 -7 -8 -16 -12 -21 -9 -5 3 -9
0 -9 -5 0 -6 -6 -11 -14 -11 -8 0 -17 -7 -20 -16 -3 -8 -10 -13 -15 -10 -5 3
-14 -1 -21 -9 -7 -8 -16 -13 -20 -10 -5 3 -12 0 -16 -6 -5 -8 -3 -9 6 -4 9 5
11 4 6 -4 -4 -6 -12 -8 -18 -5 -6 4 -13 2 -17 -3 -3 -6 -27 -24 -53 -40 -26
-17 -45 -33 -42 -36 4 -3 -5 -9 -20 -13 -14 -3 -26 -10 -26 -15 0 -5 -5 -9
-11 -9 -6 0 -24 -9 -40 -21 -16 -11 -34 -17 -40 -13 -7 4 -9 3 -6 -3 4 -6 -9
-20 -28 -32 -19 -11 -35 -16 -35 -11 0 5 -12 -2 -27 -16 -15 -14 -33 -22 -40
-20 -7 3 -21 -3 -30 -13 -10 -9 -34 -24 -53 -31 -19 -7 -44 -20 -54 -29 -11
-9 -17 -11 -14 -6 3 6 -5 11 -19 12 -15 0 -21 -2 -16 -5 7 -5 6 -11 -3 -20 -8
-7 -14 -10 -14 -6 0 3 -11 -1 -25 -10 -27 -18 -49 -22 -25 -5 12 9 12 10 -3 5
-10 -3 -23 -6 -28 -6 -6 0 -8 -4 -5 -9 7 -11 -140 -45 -160 -37 -10 4 -12 2
-8 -6 5 -8 2 -9 -10 -5 -10 4 -24 7 -31 7 -20 0 -27 31 -10 50 8 9 15 22 15
28 0 6 10 20 22 32 12 11 19 20 16 20 -3 0 10 16 29 35 35 35 50 45 37 23 -4
-7 -3 -8 5 -4 6 4 9 12 5 17 -3 5 16 31 43 58 26 26 58 60 71 75 20 23 26 26
40 15 14 -11 15 -11 5 1 -16 17 -17 34 -2 24 7 -4 7 1 -1 16 -8 15 -8 20 -1
16 15 -9 15 68 0 95 -8 15 -7 25 2 37 11 14 11 15 -1 5 -16 -14 -34 -18 -26
-5 2 4 -4 14 -16 21 -14 9 -18 9 -13 1 4 -7 -3 -5 -17 4 -34 22 -202 31 -303
16 -44 -7 -90 -12 -102 -11 -13 0 -23 -3 -23 -9 0 -5 -18 -8 -39 -7 -22 1 -37
-1 -35 -5 3 -5 2 -8 -3 -9 -45 -4 -65 -9 -110 -27 -29 -11 -53 -18 -53 -16 0
3 -14 -3 -31 -11 -16 -9 -42 -18 -57 -20 -15 -2 -54 -15 -86 -30 -32 -14 -71
-27 -86 -28 -16 -1 -26 -5 -24 -8 5 -9 -45 -21 -57 -14 -5 4 -8 1 -7 -6 3 -15
-141 -90 -160 -84 -7 3 -11 1 -8 -3 2 -4 -35 -28 -84 -53 -49 -25 -86 -40 -83
-35 4 6 -3 3 -14 -7 -20 -18 -23 -18 -47 -2 -22 14 -27 35 -10 35 3 0 2 -4 -1
-10 -3 -5 -1 -10 4 -10 10 0 15 14 12 33 -1 5 3 6 8 3 5 -3 16 5 25 19 18 27
21 39 7 31 -5 -4 -7 3 -4 14 3 11 0 20 -6 20 -6 0 -11 12 -11 28 0 15 -17 51
-38 82 -58 84 -58 83 -31 75 13 -4 31 -14 40 -21 9 -8 19 -11 23 -7 4 5 6 1 4
-7 -2 -8 2 -14 9 -15 6 0 15 -4 20 -9 4 -5 3 -7 -3 -3 -6 3 -11 0 -11 -7 0 -8
6 -12 12 -9 15 5 28 -24 18 -39 -3 -6 -2 -8 3 -5 16 10 35 -8 28 -27 -5 -13
-9 -14 -23 -4 -13 10 -14 10 -4 -2 17 -19 43 -22 36 -4 -7 19 2 18 22 -2 15
-16 18 -15 37 4 20 19 22 20 34 4 10 -14 11 -12 9 12 -2 15 -1 25 2 22 3 -3
24 8 48 25 23 16 48 28 56 26 8 -2 11 -2 7 0 -9 5 16 33 29 33 16 0 12 40 -8
86 -10 25 -19 57 -19 70 0 13 -4 24 -8 24 -5 0 -17 25 -27 55 -11 30 -22 55
-26 55 -4 0 -9 9 -12 21 -3 12 -10 19 -14 16 -5 -3 -10 4 -10 15 -1 12 -7 24
-14 28 -6 4 -11 20 -11 34 0 29 -13 42 -24 25 -4 -8 -3 -9 4 -5 7 4 12 2 12
-4 0 -7 -6 -10 -12 -7 -7 2 -13 9 -13 16 0 6 -15 27 -34 46 -19 20 -31 38 -28
42 4 3 9 -2 13 -11 3 -9 10 -13 15 -10 5 3 9 1 9 -4 0 -8 45 -35 62 -36 4 -1
16 -11 27 -23 11 -12 30 -28 41 -36 12 -8 23 -23 24 -33 2 -11 7 -19 12 -19 5
-1 18 -6 30 -12 41 -23 48 -4 40 109 -8 127 -10 139 -30 213 -16 63 -13 82 9
50 8 -11 19 -25 24 -31 6 -7 6 -15 0 -21 -6 -6 -2 -18 11 -34 l21 -24 -17 30
-17 30 26 -30 c15 -16 26 -33 27 -36 0 -4 10 -28 22 -55 12 -27 21 -53 20 -58
-2 -4 2 -14 9 -22 6 -7 7 -19 3 -25 -4 -7 -3 -9 3 -6 17 11 72 -230 58 -253
-4 -6 1 -7 11 -3 14 5 16 16 11 67 -14 142 -108 377 -199 497 -70 91 -98 124
-98 117z m-295 -1138 c-3 -5 0 -7 8 -4 8 3 18 1 22 -5 3 -6 1 -11 -6 -11 -7 0
-20 -7 -29 -15 -10 -9 -28 -18 -40 -20 -13 -2 -33 -13 -44 -23 -46 -40 -54
-44 -62 -31 -4 7 -3 9 4 5 6 -3 20 7 32 24 12 17 25 28 30 25 5 -3 11 3 14 12
3 10 18 25 33 35 33 19 47 22 38 8z"/>
<path d="M4856 2642 c-162 -110 -272 -254 -340 -446 -4 -13 -10 -15 -19 -8
-23 19 -262 115 -407 164 -220 74 -452 128 -705 164 -172 24 -661 30 -852 10
-289 -31 -519 -79 -788 -166 -225 -73 -580 -228 -602 -263 -4 -6 0 -8 10 -4
10 3 17 2 17 -2 0 -5 -6 -11 -12 -14 -7 -2 -1 -4 14 -3 14 0 26 3 26 6 -1 20
7 29 41 45 22 9 44 14 50 10 7 -4 10 -1 9 7 -2 7 5 12 15 11 10 0 16 1 13 4
-8 8 96 57 113 54 7 -1 10 2 6 9 -5 7 2 9 22 5 21 -5 24 -4 13 4 -12 9 -11 11
7 11 12 0 25 5 28 10 3 6 17 10 31 10 16 0 23 4 18 11 -4 7 -1 10 7 7 8 -3 39
6 69 20 30 13 56 24 58 23 1 -1 14 -1 30 -1 19 0 23 3 13 9 -9 6 -5 10 15 14
16 3 63 15 104 27 70 20 117 30 148 32 6 1 12 5 12 9 0 4 8 6 18 4 9 -1 22 1
27 5 6 4 37 12 70 19 33 6 74 14 90 17 17 3 39 5 50 5 11 0 31 4 45 9 59 22
329 41 594 41 288 0 371 -5 391 -21 6 -5 14 -7 17 -5 12 12 298 -30 403 -59
28 -8 70 -17 93 -20 24 -4 51 -13 59 -21 8 -8 20 -15 26 -15 7 0 6 4 -3 10 -8
5 -10 10 -4 10 6 0 14 -3 18 -7 7 -7 17 -10 66 -20 17 -3 27 -10 23 -16 -4 -6
-1 -7 6 -2 7 4 23 3 34 -3 48 -23 105 -41 111 -35 3 4 6 1 6 -6 0 -7 3 -10 8
-8 12 7 147 -49 145 -60 -1 -6 11 -9 28 -7 18 2 28 0 24 -6 -3 -6 5 -10 20
-10 14 0 24 -4 21 -9 -4 -5 4 -7 16 -3 14 3 19 2 14 -6 -5 -8 3 -12 23 -12 16
0 32 -4 35 -9 4 -5 -4 -7 -16 -5 -17 3 -16 1 5 -7 15 -6 24 -15 21 -21 -4 -7
-2 -8 4 -4 6 4 8 14 5 23 -4 10 -2 14 5 10 6 -5 19 15 32 50 29 79 62 143 72
143 5 0 7 4 4 9 -3 5 1 12 10 15 9 3 14 11 12 18 -6 16 42 69 55 61 6 -3 7 -1
3 6 -4 6 -1 14 8 17 8 3 18 14 21 24 3 11 15 22 26 25 10 4 19 14 19 22 0 9 3
13 7 10 3 -4 12 1 20 11 12 15 13 14 2 -8 -7 -14 -18 -29 -26 -33 -7 -5 -11
-12 -8 -18 4 -5 -1 -16 -9 -25 -9 -8 -16 -24 -16 -35 0 -13 -4 -18 -12 -13 -6
4 -8 3 -5 -3 3 -5 -5 -44 -19 -87 -24 -76 -32 -152 -15 -142 5 3 12 23 15 43
21 117 87 264 166 367 28 36 49 66 48 66 -2 -1 -34 -22 -72 -48z"/>
<path d="M4920 2626 c7 -7 13 -7 20 0 6 6 3 10 -10 10 -13 0 -16 -4 -10 -10z"/>
<path d="M3270 2480 c8 -5 20 -10 25 -10 6 0 3 5 -5 10 -8 5 -19 10 -25 10 -5
0 -3 -5 5 -10z"/>
<path d="M3798 2393 c7 -3 16 -2 19 1 4 3 -2 6 -13 5 -11 0 -14 -3 -6 -6z"/>
<path d="M5170 1986 c0 -2 8 -10 18 -17 15 -13 16 -12 3 4 -13 16 -21 21 -21
13z"/>
<path d="M579 1931 c6 -10 7 -21 3 -25 -3 -4 1 -4 10 -1 15 6 15 8 0 26 -21
24 -26 24 -13 0z"/>
<path d="M4937 1916 c-4 -10 -1 -13 8 -9 8 3 12 9 9 14 -7 12 -11 11 -17 -5z"/>
<path d="M5226 1677 c3 -10 9 -15 12 -12 3 3 0 11 -7 18 -10 9 -11 8 -5 -6z"/>
<path d="M5576 1468 c3 -5 10 -6 15 -3 13 9 11 12 -6 12 -8 0 -12 -4 -9 -9z"/>
<path d="M3065 1239 c-4 -6 -5 -12 -2 -15 2 -3 7 2 10 11 7 17 1 20 -8 4z"/>
<path d="M3120 1246 c0 -2 7 -7 16 -10 8 -3 12 -2 9 4 -6 10 -25 14 -25 6z"/>
<path d="M3292 1225 c15 -16 20 -17 30 -6 11 11 10 13 0 7 -7 -4 -21 -2 -30 5
-15 12 -15 11 0 -6z"/>
<path d="M434 1206 l-28 -23 12 -91 c7 -50 15 -99 18 -109 4 -10 -9 0 -27 22
-88 104 -111 125 -140 125 -16 0 -38 -9 -50 -21 -24 -24 -22 -42 22 -218 32
-129 49 -161 84 -161 27 0 55 24 55 48 0 30 -51 172 -62 172 -6 0 -8 -9 -4
-22 4 -13 8 -27 9 -33 2 -5 5 -14 8 -20 4 -5 5 -20 4 -32 -1 -12 2 -20 6 -18
8 6 18 -52 10 -62 -11 -15 -36 -8 -48 12 -7 11 -15 43 -19 70 -4 28 -9 43 -12
35 -5 -15 -42 148 -42 188 0 12 5 22 11 22 5 0 8 4 5 8 -2 4 5 8 16 8 30 0
109 -81 94 -97 -8 -9 -8 -10 2 -5 6 4 12 3 12 -2 0 -5 9 -12 20 -15 12 -3 20
-14 20 -28 0 -22 0 -22 24 4 13 14 26 24 29 21 2 -3 7 2 10 10 4 10 1 13 -9 9
-7 -3 -14 -1 -14 3 -3 55 -12 162 -15 171 -2 7 -1 12 3 12 25 -4 42 3 37 14
-4 6 0 4 8 -5 8 -10 16 -15 19 -12 3 3 15 -7 27 -22 16 -20 18 -31 10 -45 -6
-12 -6 -19 0 -19 5 0 11 5 13 11 2 7 10 4 18 -7 13 -16 13 -17 0 -10 -8 4 -7
1 4 -8 10 -8 15 -19 11 -25 -3 -7 0 -8 10 -5 11 4 14 2 10 -9 -4 -8 1 -17 10
-21 10 -3 15 -13 12 -21 -4 -10 -1 -12 10 -8 13 5 15 2 10 -11 -4 -10 -3 -15
3 -11 6 3 11 0 12 -7 0 -7 2 -17 2 -23 1 -5 5 -16 10 -24 6 -9 5 -12 -2 -7 -6
3 -12 -1 -14 -10 -2 -13 -7 -12 -28 9 -35 35 -50 55 -50 65 0 16 -64 72 -72
64 -11 -11 -16 -102 -6 -96 5 3 8 -5 8 -18 0 -13 3 -41 7 -63 3 -22 2 -37 -2
-33 -5 4 -13 4 -20 -2 -14 -12 -63 31 -94 83 -20 32 -21 40 -10 55 13 16 13
16 -6 0 -14 -12 -25 -14 -35 -8 -14 9 -6 15 15 10 5 -1 6 2 2 7 -5 4 -10 6
-11 3 -2 -3 -11 2 -22 10 -18 14 -18 14 -4 -4 8 -11 14 -21 13 -23 -8 -10 -1
-23 9 -17 7 4 8 3 4 -4 -9 -15 95 -136 122 -140 11 -2 31 2 43 8 20 11 21 17
15 85 -4 39 -11 87 -16 105 -5 19 -8 35 -7 37 2 2 26 -34 53 -80 54 -89 79
-104 116 -71 15 14 18 26 14 48 -8 37 -148 248 -183 276 -33 26 -46 25 -79 -4z"/>
<path d="M1746 1203 c-6 -14 -5 -15 5 -6 7 7 10 15 7 18 -3 3 -9 -2 -12 -12z"/>
<path d="M1176 1188 c-21 -35 -72 -326 -60 -346 20 -31 40 -37 67 -19 20 13
27 28 32 72 4 30 10 55 14 55 3 0 24 -32 46 -71 57 -100 95 -128 129 -93 26
25 19 50 -36 135 -29 46 -47 84 -41 87 5 4 27 18 49 31 59 37 84 62 84 87 0
20 -32 54 -51 54 -3 0 -41 -25 -83 -55 -52 -37 -76 -50 -72 -38 17 58 17 91 1
106 -24 24 -62 21 -79 -5z m56 -16 c-3 -10 -1 -13 6 -8 9 5 9 0 2 -19 -11 -30
-10 -75 3 -75 4 0 6 -3 4 -7 -3 -5 1 -14 9 -20 8 -8 15 -9 19 -3 3 6 1 10 -5
10 -6 0 -8 5 -5 11 4 6 14 8 22 5 8 -3 11 -1 8 4 -3 6 -1 10 6 10 6 0 22 10
34 23 41 42 65 58 65 43 0 -7 8 -20 18 -27 14 -11 15 -11 5 1 -16 18 -17 33
-1 28 17 -6 18 -35 2 -49 -11 -9 -17 -9 -28 0 -12 10 -14 9 -10 -6 3 -12 -7
-27 -31 -46 -19 -15 -35 -23 -35 -18 0 6 9 15 20 21 21 11 19 31 -3 29 -8 0
-8 -2 1 -6 14 -5 -36 -50 -51 -45 -5 1 -6 -2 -2 -8 3 -6 12 -7 18 -3 8 4 7 1
-1 -9 -7 -9 -9 -18 -4 -20 5 -1 13 -14 17 -27 5 -18 4 -22 -5 -16 -9 6 -11 4
-6 -4 5 -7 14 -10 22 -7 8 3 13 2 13 -2 -4 -22 2 -42 10 -37 11 6 29 -22 41
-64 6 -23 4 -26 -14 -26 -31 2 -48 15 -42 32 3 8 2 12 -2 10 -4 -3 -16 7 -26
21 -11 14 -14 22 -6 17 8 -5 11 -3 8 6 -3 8 -10 13 -17 12 -6 -2 -13 8 -17 22
-3 13 -16 27 -27 31 -12 4 -25 12 -29 18 -5 7 -8 6 -9 -4 0 -8 -2 -22 -4 -30
-2 -8 -9 -32 -14 -54 -13 -52 -27 -65 -47 -44 -14 14 -15 23 -5 65 15 62 20
89 26 138 7 52 25 117 36 131 13 16 38 13 31 -4z"/>
<path d="M1365 1120 c-3 -6 1 -7 9 -4 18 7 21 14 7 14 -6 0 -13 -4 -16 -10z"/>
<path d="M1210 1084 c0 -8 5 -12 10 -9 6 4 8 11 5 16 -9 14 -15 11 -15 -7z"/>
<path d="M1195 1049 c-4 -6 -5 -12 -2 -15 2 -3 7 2 10 11 7 17 1 20 -8 4z"/>
<path d="M1220 1014 c0 -6 7 -19 16 -30 14 -18 14 -18 3 6 -14 31 -19 36 -19
24z"/>
<path d="M1359 848 c-7 -29 -5 -36 7 -31 16 6 18 19 4 28 -5 3 -10 5 -11 3z"/>
<path d="M3100 1192 c-21 -17 -21 -22 -13 -80 9 -54 8 -62 -6 -63 -9 0 -39 -4
-68 -8 -59 -8 -63 -5 -63 60 0 68 -62 105 -95 56 -13 -21 -13 -39 6 -182 11
-87 24 -166 30 -177 12 -22 61 -24 79 -3 9 11 11 34 6 79 l-6 63 69 10 69 9 7
-63 c5 -52 11 -67 31 -79 22 -15 26 -15 49 0 31 20 31 38 6 230 -14 110 -22
142 -36 152 -25 18 -38 18 -65 -4z m65 -60 c3 -22 8 -59 10 -83 21 -217 21
-216 5 -216 -26 0 -40 18 -41 56 -1 50 -10 69 -41 85 -20 11 -28 11 -31 3 -3
-9 -10 -8 -27 1 -19 12 -22 12 -18 0 4 -9 -2 -13 -21 -12 -14 0 -31 -6 -38
-15 -15 -20 -17 -97 -3 -106 8 -5 8 -11 0 -20 -14 -17 -48 -26 -56 -14 -3 5
-1 9 4 9 6 0 13 7 16 16 5 13 4 14 -7 6 -11 -9 -16 5 -26 81 -17 121 -22 194
-13 217 12 31 43 -1 46 -47 4 -63 41 -108 70 -84 18 15 49 16 76 2 24 -12 24
-12 5 5 -20 16 -20 16 3 11 12 -3 22 -1 22 5 0 5 4 7 8 4 5 -3 7 26 4 64 -3
60 -1 69 15 72 26 6 31 2 38 -40z"/>
<path d="M2940 830 c-9 -6 -10 -10 -3 -10 6 0 15 5 18 10 8 12 4 12 -15 0z"/>
<path d="M5030 1190 c-22 -22 -22 -28 1 -143 5 -26 9 -52 9 -57 0 -4 -39 33
-87 83 -48 51 -92 95 -98 99 -16 12 -39 9 -60 -6 -18 -13 -18 -18 -1 -177 19
-174 31 -209 71 -209 25 0 55 23 55 43 0 19 -20 140 -27 162 -3 11 39 -27 94
-84 88 -91 102 -103 124 -96 49 15 49 11 23 220 -13 113 -22 153 -36 167 -23
23 -43 23 -68 -2z m58 -12 c1 -7 4 -26 7 -43 27 -173 36 -276 24 -291 -10 -12
-14 -12 -20 -2 -6 9 -9 9 -9 1 0 -6 -34 21 -75 61 -41 40 -75 76 -75 82 0 5 5
2 11 -6 7 -10 9 -11 7 -2 -2 8 -8 14 -13 14 -21 0 -45 20 -39 31 4 7 -2 4 -12
-6 -14 -13 -19 -32 -19 -71 0 -31 4 -49 8 -43 5 7 6 -3 4 -23 -3 -19 -1 -42 4
-51 6 -11 3 -16 -9 -16 -28 -2 -44 6 -37 17 5 8 12 7 23 -2 15 -12 16 -11 4 4
-8 9 -19 15 -26 12 -7 -3 -12 6 -14 23 -1 16 -7 75 -14 133 -17 136 -16 143 6
146 26 4 46 -6 46 -23 0 -8 3 -12 8 -10 4 3 18 -12 31 -34 14 -21 27 -37 29
-34 3 2 -1 13 -9 22 -11 14 -9 14 9 -2 l23 -19 -23 -19 c-13 -10 -17 -16 -11
-12 18 9 57 16 50 8 -7 -6 22 -38 34 -38 4 0 11 -4 16 -9 5 -6 2 -6 -7 -1 -13
8 -13 7 -1 -8 19 -24 2 -21 -28 6 l-26 22 23 -26 c12 -14 19 -29 15 -34 -5 -4
3 -2 15 4 13 7 21 15 18 18 -3 4 0 13 7 21 13 17 17 143 4 135 -4 -3 -7 8 -5
24 2 22 19 42 44 53 0 0 1 -6 2 -12z"/>
<path d="M882 1184 c-26 -18 -162 -294 -162 -329 0 -29 18 -45 52 -45 20 0 31
8 43 30 19 37 19 44 -1 36 -12 -5 -15 -2 -10 10 3 8 6 19 6 22 0 4 7 -4 16
-16 12 -17 25 -22 62 -22 56 0 66 -6 79 -45 14 -42 56 -56 84 -28 l21 20 -46
174 c-26 96 -52 179 -59 186 -22 21 -61 25 -85 7z m81 -55 c10 -20 15 -47 13
-67 -3 -19 -1 -30 5 -27 8 6 13 -11 12 -42 -1 -7 3 -13 8 -13 5 0 6 -7 3 -15
-4 -8 -2 -15 4 -15 8 0 24 -72 23 -104 0 -5 -12 -10 -26 -12 -14 -1 -23 1 -20
6 3 4 -3 17 -13 28 -12 15 -34 22 -75 26 -63 6 -80 12 -72 27 4 5 1 9 -4 9 -6
0 -11 -5 -11 -11 0 -8 -6 -7 -17 2 -15 12 -16 12 -8 -1 6 -8 10 -29 10 -47 1
-23 -5 -34 -22 -42 -18 -8 -23 -7 -28 10 -4 12 0 30 10 45 9 13 14 28 11 32
-2 4 9 27 25 50 16 24 24 40 17 36 -7 -5 0 9 15 29 15 20 25 42 21 49 -4 6 -3
8 3 5 11 -7 28 22 18 31 -3 3 -5 -1 -5 -8 0 -7 -3 -11 -6 -7 -3 3 6 21 21 41
22 28 30 33 48 27 12 -4 30 -23 40 -42z m57 -311 c0 -10 3 -9 9 1 5 8 11 9 15
3 3 -5 -1 -12 -9 -16 -8 -3 -17 -1 -20 5 -4 5 -11 6 -17 3 -7 -4 -8 -2 -4 4
10 16 26 15 26 0z"/>
<path d="M890 1070 c-15 -17 -22 -35 -23 -57 0 -7 -4 -10 -8 -8 -3 3 -13 -3
-20 -12 -8 -10 -9 -14 -2 -10 18 11 27 -31 11 -51 -12 -16 -11 -16 6 -2 22 17
58 20 68 5 5 -6 8 -5 8 4 0 10 3 11 13 3 10 -8 12 -2 11 31 -2 77 -36 128 -64
97z m35 -64 c6 -43 5 -48 -10 -42 -9 3 -22 6 -29 6 -10 0 -9 12 3 49 19 58 26
55 36 -13z"/>
<path d="M750 866 c0 -2 8 -10 18 -17 15 -13 16 -12 3 4 -13 16 -21 21 -21 13z"/>
<path d="M1628 1181 c-33 -26 -171 -321 -162 -345 8 -21 41 -35 67 -28 11 3
25 19 32 36 12 28 16 30 61 28 66 -4 84 -10 84 -30 0 -54 67 -82 94 -39 13 20
10 37 -29 182 -52 195 -52 194 -82 206 -33 12 -37 12 -65 -10z m62 -16 c0 6 5
3 10 -5 5 -8 7 -23 4 -34 -4 -12 -2 -16 5 -12 7 5 8 1 4 -10 -5 -13 -3 -15 7
-9 8 5 11 4 6 -3 -4 -6 -2 -19 3 -29 12 -21 49 -172 55 -220 3 -29 1 -32 -20
-31 -13 1 -25 6 -25 10 -3 20 -5 24 -12 36 -5 6 -6 16 -3 20 5 8 -19 12 -74
12 -26 0 -31 3 -20 10 12 8 9 10 -13 10 -19 0 -26 -4 -22 -12 4 -7 -1 -4 -9 6
-9 11 -16 14 -16 7 0 -7 -5 -9 -12 -5 -7 4 -8 3 -4 -5 4 -6 13 -8 19 -4 6 4 2
-5 -10 -20 -12 -16 -25 -28 -30 -29 -4 0 -16 -4 -25 -9 -36 -19 -9 70 33 112
10 10 19 27 19 37 0 10 6 24 13 31 10 11 9 12 -2 6 -10 -6 -8 2 5 26 10 19 22
36 27 37 4 2 5 8 1 13 -3 5 0 9 6 9 7 0 10 6 7 14 -3 8 2 21 12 30 21 19 35
21 26 4 -3 -7 0 -5 7 4 9 13 14 14 20 5 4 -7 8 -7 8 -2z m-148 -197 c-8 -8 -9
-4 -5 13 4 13 8 18 11 10 2 -7 -1 -18 -6 -23z"/>
<path d="M1645 1080 c3 -6 1 -10 -5 -10 -6 0 -9 -4 -6 -9 3 -5 -1 -11 -9 -15
-8 -3 -15 -12 -15 -21 0 -8 -5 -15 -11 -15 -8 0 -8 -5 1 -15 10 -11 10 -15 0
-15 -17 0 -6 -25 11 -25 8 -1 13 -6 12 -11 -1 -6 4 -11 12 -11 8 0 11 5 8 10
-4 6 3 8 17 4 30 -8 54 16 45 45 -14 45 -37 87 -51 92 -9 3 -12 1 -9 -4z m30
-79 c6 -39 5 -43 -10 -38 -9 4 -23 7 -30 7 -10 0 -10 10 3 49 18 54 26 50 37
-18z"/>
<path d="M1510 876 c0 -2 8 -10 18 -17 15 -13 16 -12 3 4 -13 16 -21 21 -21
13z"/>
<path d="M1967 1185 c-80 -28 -126 -100 -127 -198 0 -116 75 -197 185 -197 60
0 103 19 142 63 99 112 52 299 -85 337 -48 13 -68 12 -115 -5z m33 -29 c0 17
81 10 91 -9 6 -10 16 -14 26 -10 12 5 15 2 10 -10 -3 -9 -2 -19 3 -22 6 -4 10
-10 10 -15 0 -11 -38 -1 -47 13 -4 6 -1 7 8 2 8 -5 11 -4 6 1 -5 5 -13 10 -18
10 -5 1 -10 3 -11 4 -7 7 -98 4 -98 -2 0 -5 -12 -22 -27 -39 -16 -17 -29 -35
-29 -40 -1 -5 -3 -12 -4 -16 -6 -21 0 -77 9 -86 6 -6 11 -16 11 -22 0 -5 -5
-3 -10 5 -5 8 -10 11 -10 5 0 -5 15 -22 34 -37 26 -21 41 -26 66 -22 25 4 30
3 24 -8 -6 -11 -5 -11 9 0 9 8 21 11 26 7 7 -3 8 0 5 9 -3 9 -1 16 5 16 6 0
16 12 21 26 6 15 14 22 22 18 8 -5 9 -2 5 9 -3 10 -3 17 2 17 5 0 5 19 1 42
-5 23 -4 53 1 66 6 16 6 29 -2 38 -9 11 -9 14 0 14 7 0 9 5 5 13 -4 6 -4 9 0
5 4 -3 6 -8 4 -11 -1 -3 5 -14 16 -26 10 -11 16 -27 12 -36 -3 -9 -2 -13 3
-10 5 3 12 1 16 -5 3 -5 1 -10 -6 -10 -8 0 -7 -5 2 -17 12 -15 12 -16 -1 -8
-12 6 -13 5 -2 -6 15 -16 16 -49 1 -49 -7 0 -9 -9 -6 -21 4 -15 2 -19 -9 -15
-9 3 -12 1 -9 -4 10 -16 -5 -50 -21 -50 -8 0 -14 -9 -14 -19 0 -15 -6 -19 -29
-17 -17 1 -28 -1 -25 -5 5 -9 -22 -19 -52 -19 -18 0 -23 4 -18 13 6 9 5 9 -7
0 -13 -10 -20 -9 -39 5 -49 37 -77 68 -73 80 3 7 -1 11 -8 10 -8 -2 -13 11
-13 39 -1 23 -4 44 -8 48 -10 11 3 36 15 28 6 -4 8 2 5 15 -4 12 -2 22 3 22 5
0 8 3 7 8 -5 15 35 63 49 58 8 -3 11 -2 8 3 -3 5 -1 12 5 16 5 3 10 0 10 -7 0
-7 5 -5 11 6 9 15 13 16 20 5 5 -8 9 -9 9 -3z m72 -67 c64 -34 50 -172 -20
-197 -64 -22 -122 38 -108 113 14 73 74 113 128 84z m58 -24 c0 -8 -2 -15 -4
-15 -2 0 -6 7 -10 15 -3 8 -1 15 4 15 6 0 10 -7 10 -15z"/>
<path d="M1900 906 c0 -2 8 -10 18 -17 15 -13 16 -12 3 4 -13 16 -21 21 -21
13z"/>
<path d="M1940 883 c0 -6 8 -17 18 -24 16 -13 16 -13 2 6 -8 11 -16 22 -17 24
-2 2 -3 0 -3 -6z"/>
<path d="M3498 1183 c-15 -17 -38 -215 -38 -320 0 -55 14 -62 126 -65 l88 -3
10 29 c9 24 7 31 -13 47 -15 12 -39 19 -66 19 l-43 0 4 43 c2 23 8 83 13 132
8 73 7 94 -5 113 -17 26 -55 29 -76 5z m60 -98 c-2 -40 -5 -72 -8 -70 -3 2 -6
-25 -7 -60 -3 -70 2 -78 62 -94 45 -12 79 -31 57 -31 -7 0 -11 -4 -7 -9 6 -11
-100 -3 -125 9 -3 1 -14 3 -25 4 -17 1 -20 8 -19 46 0 51 8 105 19 135 6 17 5
17 -5 5 -9 -12 -10 -9 -5 15 4 17 8 46 10 65 1 19 3 38 4 43 0 4 1 10 0 13 -2
14 26 22 38 12 9 -8 13 -33 11 -83z"/>
<path d="M3501 914 c0 -11 3 -14 6 -6 3 7 2 16 -1 19 -3 4 -6 -2 -5 -13z"/>
<path d="M4140 1186 c-11 -15 -39 -236 -40 -328 0 -48 45 -73 84 -45 12 9 17
28 18 65 1 28 4 52 7 52 3 0 20 -23 36 -51 42 -71 61 -89 96 -89 44 0 58 37
31 82 -12 19 -30 43 -42 53 -25 23 -26 35 -1 35 26 0 71 48 72 79 5 111 -30
143 -171 156 -64 6 -78 4 -90 -9z m115 -22 c22 -1 45 -3 52 -3 7 -1 24 -12 39
-24 33 -29 44 -96 20 -120 -8 -8 -12 -18 -8 -22 4 -5 2 -6 -3 -3 -6 4 -23 -4
-39 -17 -25 -20 -28 -26 -17 -39 8 -9 10 -16 5 -16 -5 0 -1 -5 9 -11 9 -5 17
-17 17 -25 0 -8 5 -12 10 -9 6 3 10 2 10 -4 0 -5 3 -16 6 -24 4 -11 -2 -14
-20 -12 -15 2 -24 -1 -20 -6 3 -5 10 -7 15 -4 5 4 9 1 9 -4 0 -16 -16 -13 -34
5 -18 17 -22 39 -6 29 6 -3 7 1 3 10 -4 11 -8 13 -13 5 -5 -8 -10 -7 -19 4 -7
9 -8 16 -2 20 5 4 9 15 8 26 -1 10 -5 17 -9 14 -4 -3 -4 -12 -1 -22 4 -11 -5
-6 -26 12 -38 36 -52 27 -61 -36 -4 -33 -10 -43 -23 -42 -14 2 -15 -1 -6 -12
10 -12 9 -13 -4 -8 -21 8 -30 37 -23 72 7 33 19 177 17 215 -1 15 3 27 8 27 5
0 11 10 14 21 5 18 10 20 29 14 13 -4 41 -9 63 -11z"/>
<path d="M4150 1121 c0 -6 4 -13 10 -16 6 -3 7 1 4 9 -7 18 -14 21 -14 7z"/>
<path d="M4316 1122 c-3 -5 1 -9 9 -9 8 0 12 4 9 9 -3 4 -7 8 -9 8 -2 0 -6 -4
-9 -8z"/>
<path d="M4211 1107 c-6 -6 -11 -19 -11 -29 0 -10 -8 -18 -17 -19 -14 0 -15
-2 -3 -6 8 -4 21 -14 27 -24 13 -18 78 -46 68 -29 -4 6 0 10 8 10 14 0 30 23
32 45 0 6 5 17 9 25 5 8 6 12 1 8 -4 -4 -13 -2 -19 6 -15 18 -81 27 -95 13z
m82 -26 c5 -5 6 -18 2 -30 -5 -16 -15 -21 -41 -21 -32 0 -34 2 -34 36 0 36 1
36 32 30 18 -3 36 -10 41 -15z"/>
<path d="M4521 1191 c-8 -5 -27 -77 -46 -172 -41 -202 -43 -197 79 -220 82
-15 89 -15 109 1 18 15 20 22 12 46 -9 25 -18 30 -63 38 -48 9 -52 12 -52 38
0 32 1 32 53 17 31 -8 43 -7 63 6 47 31 22 80 -47 91 -33 6 -39 10 -39 31 0
25 1 25 56 18 62 -7 84 3 84 40 0 32 -21 46 -93 61 -73 16 -97 17 -116 5z
m103 -24 c2 3 15 -2 28 -11 12 -9 30 -16 40 -16 21 0 24 -28 5 -36 -8 -3 -33
-1 -57 5 -60 13 -70 7 -70 -46 0 -25 4 -42 9 -38 5 3 17 -5 25 -17 14 -20 16
-20 16 -4 0 15 3 16 15 6 8 -7 15 -9 15 -4 0 5 5 1 11 -8 7 -12 7 -24 0 -35
-6 -10 -11 -13 -11 -6 0 7 -10 10 -26 7 -14 -3 -23 -1 -20 4 8 13 -30 8 -47
-6 -21 -18 -30 -61 -16 -78 6 -7 14 -13 17 -12 4 1 24 -2 45 -6 42 -9 67 -40
41 -50 -9 -3 -19 -4 -24 -1 -7 5 -89 17 -122 19 -9 0 -15 2 -13 5 3 2 0 10 -6
17 -7 8 -8 25 -4 41 9 32 11 41 20 108 4 28 9 57 12 65 7 18 9 29 11 53 1 9
11 26 21 36 16 16 26 18 50 11 16 -4 32 -6 35 -3z"/>
<path d="M4530 1131 c0 -6 4 -13 10 -16 6 -3 7 1 4 9 -7 18 -14 21 -14 7z"/>
<path d="M4598 833 c7 -3 16 -2 19 1 4 3 -2 6 -13 5 -11 0 -14 -3 -6 -6z"/>
<path d="M5232 1191 c-7 -4 -22 -34 -32 -67 -20 -63 -12 -95 24 -102 27 -6 42
14 61 80 17 62 17 62 -5 80 -25 20 -30 21 -48 9z m32 -45 c3 -14 2 -36 -4 -50
-5 -14 -6 -26 -2 -26 13 0 -23 -20 -37 -20 -15 0 -9 52 11 96 14 31 24 30 32
0z"/>
<path d="M5415 1181 c-49 -25 -75 -66 -75 -116 0 -49 39 -87 114 -111 47 -15
56 -21 54 -38 -3 -23 -36 -26 -110 -11 -31 6 -38 4 -48 -15 -32 -59 39 -107
146 -98 50 4 61 9 91 41 28 31 33 44 33 85 0 27 -7 57 -16 70 -16 23 -83 62
-107 62 -7 0 -22 6 -33 14 -14 11 -16 18 -8 26 8 8 24 8 59 -1 46 -12 49 -11
67 11 23 29 20 48 -12 71 -40 30 -108 34 -155 10z m136 -30 c20 -16 21 -21 10
-35 -10 -11 -17 -13 -26 -6 -6 5 -15 7 -18 3 -4 -3 -7 -1 -7 5 0 7 -10 12 -22
11 -22 0 -22 -1 -3 -9 17 -7 15 -9 -12 -9 -18 -1 -33 -6 -33 -12 0 -5 -4 -8
-9 -5 -5 4 -7 -3 -4 -15 6 -22 61 -61 75 -53 4 3 8 0 8 -6 0 -6 5 -8 12 -4 7
5 9 2 5 -9 -3 -9 3 -26 15 -39 l20 -23 -16 27 c-10 17 -12 29 -6 33 6 3 10 1
10 -5 0 -6 4 -9 9 -5 5 3 17 -5 25 -17 15 -21 15 -23 -1 -30 -15 -6 -16 -7 -2
-7 14 -1 15 -8 9 -42 -4 -23 -16 -48 -25 -57 -10 -10 -15 -12 -11 -5 4 8 0 8
-18 0 -17 -8 -21 -14 -13 -20 16 -11 -93 -6 -119 5 -30 14 -46 44 -31 57 14
11 93 -10 81 -22 -3 -3 4 -3 17 0 45 12 84 78 53 90 -8 3 -11 10 -7 16 4 6 -2
8 -15 5 -12 -4 -22 -3 -22 1 0 4 -12 8 -27 9 -15 1 -32 7 -38 14 -7 8 -6 9 4
3 10 -6 12 -4 7 4 -6 9 -11 9 -21 1 -9 -8 -15 -4 -24 17 -13 32 -12 103 1 103
5 0 6 5 3 10 -3 6 1 10 9 10 9 0 16 5 16 11 0 6 7 8 16 5 8 -3 12 -2 9 4 -12
19 91 11 116 -9z"/>
<path d="M5395 1110 c-3 -6 1 -7 9 -4 18 7 21 14 7 14 -6 0 -13 -4 -16 -10z"/>
<path d="M5380 876 c0 -2 7 -7 16 -10 8 -3 12 -2 9 4 -6 10 -25 14 -25 6z"/>
<path d="M2585 1174 c-130 -67 -155 -255 -46 -347 78 -66 231 -55 231 17 0 36
-24 50 -76 42 -49 -6 -97 11 -108 39 -3 9 -6 36 -6 60 0 86 67 128 142 89 36
-19 74 -12 83 16 22 70 -133 130 -220 84z m142 -26 c14 -11 16 -11 8 2 -7 12
-6 13 7 3 8 -7 18 -11 21 -8 4 3 5 2 2 -2 -3 -3 0 -12 6 -19 6 -8 7 -19 2 -28
-7 -13 -14 -12 -52 5 -56 25 -67 24 -107 -6 -35 -27 -49 -32 -38 -13 4 7 3 8
-5 4 -9 -6 -9 -11 -1 -21 8 -9 8 -14 0 -17 -6 -2 -13 -28 -16 -58 -4 -51 -3
-58 26 -88 17 -18 35 -30 40 -27 5 3 12 0 16 -6 5 -8 3 -9 -7 -4 -8 5 -10 4
-6 0 12 -14 40 -15 54 -3 14 11 63 3 63 -11 0 -25 -103 -60 -116 -40 -3 5 -14
9 -25 9 -24 0 -87 61 -81 78 2 7 0 12 -6 12 -5 0 -10 28 -11 62 -1 34 -3 64
-4 67 -4 14 37 62 49 57 8 -3 11 0 7 10 -3 7 0 14 7 14 6 0 9 4 6 9 -6 9 15
21 48 28 11 2 21 5 23 7 8 8 76 -4 90 -16z"/>
<path d="M2730 1115 c0 -8 2 -15 4 -15 2 0 6 7 10 15 3 8 1 15 -4 15 -6 0 -10
-7 -10 -15z"/>
<path d="M2570 890 c0 -5 5 -10 11 -10 5 0 7 5 4 10 -3 6 -8 10 -11 10 -2 0
-4 -4 -4 -10z"/>
<path d="M3326 1168 c-13 -21 -56 -274 -56 -327 0 -25 25 -50 51 -51 34 0 47
35 73 199 24 153 24 166 9 183 -22 25 -60 23 -77 -4z m62 -18 c8 -13 9 -27 3
-38 -4 -9 -12 -44 -15 -77 -4 -33 -11 -82 -16 -110 -6 -27 -12 -61 -14 -75 -2
-17 -9 -24 -21 -22 -12 2 -15 -1 -9 -10 6 -10 5 -11 -7 -1 -17 13 -16 27 3
148 7 39 11 74 9 79 -1 5 1 16 5 25 4 9 9 32 11 51 3 30 16 49 33 50 3 0 11
-9 18 -20z"/>
<path d="M3376 1123 c-6 -14 -5 -15 5 -6 7 7 10 15 7 18 -3 3 -9 -2 -12 -12z"/>
<path d="M3306 842 c-2 -4 4 -8 14 -8 10 0 16 4 14 8 -3 4 -9 8 -14 8 -5 0
-11 -4 -14 -8z"/>
<path d="M3788 1176 c-97 -19 -97 -19 -64 -203 16 -87 32 -166 37 -175 11 -21
53 -23 131 -7 101 21 155 72 165 158 12 104 -47 206 -132 230 -47 13 -61 13
-137 -3z m141 -28 c11 -11 12 -10 5 2 -4 8 6 4 23 -10 20 -17 27 -29 21 -37
-6 -7 -5 -14 3 -19 8 -4 9 -3 5 4 -4 7 -2 12 3 12 6 0 11 -5 11 -11 0 -6 7
-17 15 -25 8 -9 15 -21 15 -27 0 -7 -4 -6 -10 3 -5 8 -10 10 -10 5 0 -6 6 -17
13 -24 13 -13 17 -91 4 -91 -5 0 -5 -4 -2 -10 3 -5 1 -10 -5 -10 -7 0 -9 -7
-6 -16 3 -8 2 -13 -3 -10 -5 3 -12 -1 -15 -10 -4 -10 -13 -13 -28 -9 -16 4
-19 4 -9 -3 11 -8 9 -11 -8 -17 -12 -3 -19 -10 -16 -15 3 -4 -4 -6 -15 -3 -11
3 -20 1 -20 -4 0 -6 -13 -10 -28 -11 -15 0 -32 -1 -37 -2 -6 -2 -21 -2 -35 -1
-20 1 -22 3 -10 11 13 8 12 10 -2 10 -15 0 -18 9 -18 44 0 25 -4 47 -9 50 -5
3 -12 35 -16 71 -4 37 -11 79 -15 96 -5 18 -5 29 1 29 6 0 7 5 4 10 -4 6 -3
10 2 9 4 -1 15 1 23 4 45 18 152 21 169 5z"/>
<path d="M3803 1094 c-3 -8 -12 -13 -19 -10 -7 3 -16 0 -20 -7 -4 -7 -4 -9 1
-5 11 10 35 -11 35 -30 0 -13 -3 -12 -15 4 -13 17 -13 16 -3 -13 7 -17 15 -30
19 -27 4 2 5 -5 2 -16 -3 -10 3 -45 13 -76 17 -53 19 -56 46 -50 21 4 27 2 22
-7 -5 -9 -4 -9 7 1 17 15 43 16 33 0 -4 -7 -3 -8 5 -4 7 4 10 13 8 19 -2 7 6
24 19 40 19 22 22 36 18 75 -6 71 -7 72 -17 65 -6 -4 -8 3 -5 15 4 12 2 20 -2
17 -5 -3 -10 -2 -13 2 -2 5 -2 1 -1 -7 2 -8 -4 -5 -12 8 -13 18 -26 22 -66 22
-35 0 -50 -4 -55 -16z m118 -33 c24 -25 29 -37 29 -80 0 -57 -21 -85 -72 -95
-17 -3 -32 -5 -33 -4 -1 2 -9 46 -18 97 -18 104 -16 111 36 111 18 0 39 -11
58 -29z"/>
<path d="M1840 1161 c0 -6 4 -13 10 -16 6 -3 7 1 4 9 -7 18 -14 21 -14 7z"/>
<path d="M506 1127 c3 -10 9 -15 12 -12 3 3 0 11 -7 18 -10 9 -11 8 -5 -6z"/>
<path d="M647 945 c-4 -8 -3 -16 1 -19 4 -3 9 4 9 15 2 23 -3 25 -10 4z"/>
<path d="M435 936 c-17 -12 -17 -13 3 -11 26 2 37 11 24 19 -5 3 -17 -1 -27
-8z"/>
<path d="M1685 791 c-3 -5 -2 -12 3 -15 5 -3 9 1 9 9 0 17 -3 19 -12 6z"/>
<path d="M4250 465 c0 -72 -1 -75 -19 -65 -11 5 -35 10 -54 10 -27 0 -41 -7
-62 -32 -24 -28 -27 -39 -22 -82 5 -61 39 -96 92 -96 32 0 75 30 75 52 0 5 5
6 11 2 8 -5 6 -10 -5 -16 -27 -15 -19 -38 14 -38 l30 0 0 170 0 170 -30 0 -30
0 0 -75z m22 -82 c-6 -2 -9 -10 -6 -15 4 -7 2 -8 -5 -4 -13 9 -5 26 12 25 9 0
8 -2 -1 -6z m-122 -17 c0 -2 -8 -10 -17 -17 -16 -13 -17 -12 -4 4 13 16 21 21
21 13z m81 -16 c29 -16 25 -65 -6 -86 -23 -15 -27 -15 -50 0 -29 19 -33 56 -9
80 18 19 38 20 65 6z m-81 -96 c0 -8 -19 -13 -24 -6 -3 5 1 9 9 9 8 0 15 -2
15 -3z"/>
<path d="M1310 514 c0 -10 -40 -269 -45 -291 -5 -20 -1 -23 24 -23 32 0 28
-10 52 144 l12 79 40 -111 c51 -143 61 -145 106 -20 18 51 35 100 38 108 4 8
13 -33 21 -93 l15 -107 30 0 c29 0 29 1 23 37 -3 21 -14 93 -23 161 l-18 122
-31 0 c-31 0 -32 -2 -64 -92 -18 -51 -36 -96 -39 -100 -4 -4 -22 37 -41 92
-34 99 -35 100 -67 100 -18 0 -33 -3 -33 -6z m60 -73 c0 -8 -3 -11 -6 -8 -4 3
-14 2 -23 -3 -13 -6 -17 -4 -17 10 0 10 4 16 8 14 4 -3 8 5 8 18 1 22 1 22 15
4 8 -11 15 -26 15 -35z m196 37 c5 -7 3 -8 -6 -3 -10 6 -12 4 -6 -11 12 -32
12 -36 -6 -39 -23 -4 -29 19 -12 44 17 24 20 25 30 9z m-101 -209 c-7 -31 -8
-32 -21 -14 -19 26 -18 43 4 47 24 6 25 4 17 -33z"/>
<path d="M1660 505 c-18 -22 -8 -50 19 -50 32 0 49 28 32 49 -17 20 -35 20
-51 1z"/>
<path d="M1982 511 c-21 -13 -11 -55 14 -59 30 -4 48 21 34 47 -11 22 -27 26
-48 12z"/>
<path d="M2532 511 c-21 -13 -11 -55 14 -59 30 -4 48 21 34 47 -11 22 -27 26
-48 12z"/>
<path d="M3090 408 c0 -170 29 -213 139 -205 44 3 59 9 78 31 20 24 23 38 24
119 1 51 3 109 5 130 3 36 2 37 -31 37 l-35 0 0 -120 c0 -115 -1 -120 -24
-135 -31 -21 -73 -5 -87 32 -6 15 -9 72 -7 125 l3 98 -32 0 -33 0 0 -112z m75
-158 c3 -6 -1 -7 -9 -4 -18 7 -21 14 -7 14 6 0 13 -4 16 -10z"/>
<path d="M3043 491 c0 -11 5 -18 9 -15 4 3 5 11 1 19 -7 21 -12 19 -10 -4z"/>
<path d="M2250 440 c0 -20 -5 -30 -15 -30 -9 0 -15 -9 -15 -25 0 -16 6 -25 15
-25 12 0 15 -16 15 -80 l0 -80 30 0 30 0 0 80 c0 64 3 80 15 80 9 0 15 9 15
25 0 16 -6 25 -15 25 -10 0 -15 10 -15 30 0 27 -3 30 -30 30 -27 0 -30 -3 -30
-30z m43 -70 c-3 -11 -7 -20 -9 -20 -9 0 -24 42 -19 51 11 17 34 -9 28 -31z"/>
<path d="M2470 413 c-8 -3 -23 -12 -32 -21 -16 -14 -18 -13 -18 1 0 12 -9 17
-27 17 l-28 0 0 -105 0 -105 28 0 c26 0 27 1 27 60 0 47 4 64 21 81 11 11 27
18 35 15 10 -4 14 3 14 29 0 19 -1 35 -2 34 -2 0 -10 -3 -18 -6z m-55 -64 c-4
-5 -12 -9 -18 -8 -9 0 -8 2 1 6 6 2 9 10 6 15 -4 7 -2 8 5 4 6 -4 9 -12 6 -17z"/>
<path d="M390 400 c-1 -10 65 -149 70 -149 5 0 71 139 70 149 0 3 -31 5 -70 5
-38 0 -70 -2 -70 -5z m91 -43 c-6 -8 -8 -16 -5 -19 2 -3 -2 -8 -11 -11 -10 -5
-15 0 -15 14 0 13 -4 18 -12 13 -7 -4 -8 -3 -4 4 4 7 19 12 33 12 20 0 23 -3
14 -13z"/>
<path d="M580 400 c0 -3 14 -34 30 -68 17 -34 30 -67 30 -72 0 -6 4 -10 8 -10
9 0 74 129 73 144 -1 10 -141 16 -141 6z m94 -44 c-2 -11 -10 -26 -19 -33 -8
-7 -13 -10 -10 -6 3 3 -1 16 -9 29 -17 26 -13 32 19 30 17 -1 22 -6 19 -20z"/>
<path d="M770 404 c0 -1 17 -37 37 -79 l36 -78 38 74 c21 41 38 76 39 79 0 3
-34 5 -75 5 -41 0 -75 -1 -75 -1z m89 -45 c-12 -7 -12 -9 0 -9 11 0 11 -3 1
-15 -11 -13 -14 -13 -26 2 -19 26 -17 31 12 31 18 0 22 -3 13 -9z"/>
<path d="M960 400 c1 -3 18 -38 39 -78 l37 -74 37 75 c20 41 37 76 37 78 0 2
-34 4 -75 4 -41 0 -75 -2 -75 -5z m100 -38 c0 -7 -4 -10 -10 -7 -5 3 -7 0 -4
-8 3 -8 1 -18 -5 -21 -11 -7 -30 23 -25 39 6 16 44 13 44 -3z"/>
<path d="M1650 305 l0 -105 30 0 30 0 0 105 0 105 -30 0 -30 0 0 -105z"/>
<path d="M1740 305 l0 -105 30 0 29 0 3 71 c2 55 7 74 21 83 12 8 22 8 35 0
13 -9 18 -28 20 -83 3 -68 4 -71 27 -71 25 0 25 1 25 89 0 68 -4 93 -16 105
-18 18 -66 21 -95 6 -13 -7 -19 -7 -19 0 0 5 -13 10 -30 10 l-30 0 0 -105z
m45 66 c3 -5 1 -12 -5 -16 -5 -3 -10 1 -10 9 0 18 6 21 15 7z"/>
<path d="M1970 305 l0 -105 30 0 30 0 0 105 0 105 -30 0 -30 0 0 -105z"/>
<path d="M2074 385 c-24 -37 -11 -71 36 -95 22 -11 40 -25 40 -31 0 -17 -32
-23 -44 -7 -15 20 -58 6 -50 -17 15 -39 92 -47 125 -14 14 14 19 30 17 52 -2
26 -11 36 -42 52 -45 23 -45 40 1 40 40 0 48 8 28 29 -10 9 -33 16 -55 16 -31
0 -43 -5 -56 -25z"/>
<path d="M2520 305 l0 -105 30 0 30 0 0 105 0 105 -30 0 -30 0 0 -105z"/>
<path d="M2639 381 c-67 -67 -17 -181 80 -181 27 0 81 33 81 50 0 13 -33 21
-44 10 -21 -21 -86 -9 -86 16 0 11 18 14 75 14 41 0 75 3 75 8 0 4 -5 24 -11
44 -19 71 -116 93 -170 39z m99 -23 c21 -21 13 -28 -28 -28 -22 0 -40 4 -40 8
0 14 23 32 40 32 9 0 21 -5 28 -12z m-78 -46 c0 -13 -12 -22 -22 -16 -10 6 -1
24 13 24 5 0 9 -4 9 -8z"/>
<path d="M2862 398 c-34 -43 -20 -83 40 -114 16 -8 28 -19 28 -25 0 -17 -32
-23 -44 -7 -8 11 -17 13 -36 6 l-25 -9 28 -25 c53 -45 127 -22 127 40 0 35
-20 59 -57 70 -13 4 -23 14 -23 21 0 18 17 28 25 15 8 -12 25 -13 44 -1 12 8
12 12 2 25 -16 19 -94 22 -109 4z"/>
<path d="M3403 395 c-55 -39 -51 -150 7 -180 34 -18 64 -19 92 -4 26 14 34 5
20 -26 -9 -20 -19 -25 -47 -25 -22 0 -38 6 -41 15 -8 20 -64 20 -64 0 0 -21
35 -53 65 -61 39 -10 95 3 121 27 21 20 23 31 26 145 l3 124 -27 0 c-16 0 -28
-5 -28 -10 0 -7 -6 -7 -19 0 -28 15 -83 12 -108 -5z m147 -35 c0 -5 -5 -10
-11 -10 -5 0 -7 5 -4 10 3 6 8 10 11 10 2 0 4 -4 4 -10z m-38 -17 c10 -9 18
-24 18 -35 0 -22 -34 -58 -55 -58 -19 0 -55 36 -55 55 0 20 36 55 57 55 9 0
25 -7 35 -17z m44 -108 c-1 -22 -2 -23 -13 -9 -12 17 -9 34 7 34 4 0 7 -11 6
-25z"/>
<path d="M3653 395 c-12 -8 -27 -31 -33 -51 -31 -92 53 -175 133 -133 16 9 22
9 25 0 2 -6 16 -11 31 -11 l27 0 -1 105 0 105 -27 0 c-16 0 -28 -5 -28 -10 0
-7 -6 -7 -19 0 -28 15 -83 12 -108 -5z m20 -35 c-15 -16 -29 -30 -31 -30 -8 0
21 41 36 49 26 16 26 13 -5 -19z m131 -1 c-3 -5 -10 -7 -15 -3 -5 3 -7 10 -3
15 3 5 10 7 15 3 5 -3 7 -10 3 -15z m-42 -16 c22 -20 23 -51 1 -75 -32 -35
-85 -12 -85 37 0 48 48 70 84 38z m51 -87 c-3 -16 -10 -23 -19 -19 -13 5 -13
8 1 23 8 9 12 20 8 25 -5 4 -3 5 3 2 6 -4 9 -18 7 -31z m-148 14 c3 -5 1 -10
-4 -10 -6 0 -11 5 -11 10 0 6 2 10 4 10 3 0 8 -4 11 -10z"/>
<path d="M3867 308 c1 -103 1 -103 27 -106 26 -3 26 -2 26 60 0 78 15 104 53
94 26 -6 27 -9 27 -81 l0 -75 30 0 30 0 0 78 c0 99 -13 126 -64 130 -25 2 -44
-2 -57 -14 -17 -16 -19 -16 -19 -1 0 12 -9 17 -27 17 l-28 0 2 -102z m160 67
c4 -4 3 -5 -4 -2 -6 4 -13 2 -15 -5 -3 -8 -6 -6 -10 4 -7 17 15 19 29 3z
m-120 -17 c-3 -8 -6 -5 -6 6 -1 11 2 17 5 13 3 -3 4 -12 1 -19z"/>
<path d="M4366 379 c-20 -23 -26 -42 -26 -76 0 -78 75 -128 141 -93 13 7 19 7
19 0 0 -5 14 -10 30 -10 l30 0 0 105 0 105 -30 0 c-17 0 -30 -5 -30 -12 0 -9
-3 -9 -12 0 -7 7 -31 12 -54 12 -35 0 -47 -5 -68 -31z m44 -3 c0 -2 -8 -10
-17 -17 -16 -13 -17 -12 -4 4 13 16 21 21 21 13z m111 -23 c-12 -20 -14 -14
-5 12 4 9 9 14 11 11 3 -2 0 -13 -6 -23z m-37 -9 c31 -31 10 -94 -31 -94 -24
0 -53 30 -53 53 0 26 28 57 51 57 10 0 25 -7 33 -16z m-84 -99 c13 -14 21 -25
18 -25 -2 0 -15 11 -28 25 -13 14 -21 25 -18 25 2 0 15 -11 28 -25z m130 5 c0
-5 -4 -10 -10 -10 -5 0 -10 5 -10 10 0 6 5 10 10 10 6 0 10 -4 10 -10z"/>
<path d="M4721 395 c0 -5 15 -41 33 -80 l33 -70 36 72 c21 40 37 76 37 80 0 5
-32 8 -70 8 -40 0 -70 -4 -69 -10z m76 -28 c6 -4 14 -1 16 5 3 7 6 9 6 3 0 -5
-6 -19 -14 -29 -12 -16 -17 -17 -30 -6 -30 25 -12 48 22 27z"/>
<path d="M4910 401 c0 -11 65 -150 70 -150 3 0 19 31 37 70 18 38 34 72 35 75
2 4 -30 7 -69 8 -40 2 -73 0 -73 -3z m85 -36 c13 -4 13 -8 3 -24 -14 -22 -32
-14 -41 19 -3 12 0 17 9 14 8 -2 21 -6 29 -9z"/>
<path d="M5100 397 c0 -4 16 -40 36 -80 l37 -72 38 79 c22 44 39 80 39 80 0 1
-34 1 -75 1 -41 0 -75 -3 -75 -8z m94 -35 c5 -8 -21 -48 -28 -41 -2 2 -7 14
-10 27 -6 18 -3 22 13 22 11 0 22 -3 25 -8z"/>
<path d="M5290 404 c0 -1 16 -37 36 -80 l37 -78 38 74 c21 41 38 77 39 80 0 3
-34 5 -75 5 -41 0 -75 0 -75 -1z m97 -38 c3 -2 -1 -14 -7 -26 -9 -16 -14 -19
-25 -10 -21 17 -15 49 8 44 11 -2 22 -5 24 -8z"/>
</g>
</svg>
